%TF.GenerationSoftware,KiCad,Pcbnew,7.0.1*%
%TF.CreationDate,2023-09-18T22:16:33+09:00*%
%TF.ProjectId,LaunchController,4c61756e-6368-4436-9f6e-74726f6c6c65,rev?*%
%TF.SameCoordinates,Original*%
%TF.FileFunction,Soldermask,Top*%
%TF.FilePolarity,Negative*%
%FSLAX46Y46*%
G04 Gerber Fmt 4.6, Leading zero omitted, Abs format (unit mm)*
G04 Created by KiCad (PCBNEW 7.0.1) date 2023-09-18 22:16:33*
%MOMM*%
%LPD*%
G01*
G04 APERTURE LIST*
G04 Aperture macros list*
%AMRoundRect*
0 Rectangle with rounded corners*
0 $1 Rounding radius*
0 $2 $3 $4 $5 $6 $7 $8 $9 X,Y pos of 4 corners*
0 Add a 4 corners polygon primitive as box body*
4,1,4,$2,$3,$4,$5,$6,$7,$8,$9,$2,$3,0*
0 Add four circle primitives for the rounded corners*
1,1,$1+$1,$2,$3*
1,1,$1+$1,$4,$5*
1,1,$1+$1,$6,$7*
1,1,$1+$1,$8,$9*
0 Add four rect primitives between the rounded corners*
20,1,$1+$1,$2,$3,$4,$5,0*
20,1,$1+$1,$4,$5,$6,$7,0*
20,1,$1+$1,$6,$7,$8,$9,0*
20,1,$1+$1,$8,$9,$2,$3,0*%
G04 Aperture macros list end*
%ADD10C,4.500000*%
%ADD11RoundRect,0.237500X-0.300000X-0.237500X0.300000X-0.237500X0.300000X0.237500X-0.300000X0.237500X0*%
%ADD12RoundRect,0.237500X-0.250000X-0.237500X0.250000X-0.237500X0.250000X0.237500X-0.250000X0.237500X0*%
%ADD13C,2.500000*%
%ADD14R,1.800000X0.800000*%
%ADD15RoundRect,0.250000X-0.300000X-0.300000X0.300000X-0.300000X0.300000X0.300000X-0.300000X0.300000X0*%
%ADD16R,1.600000X1.600000*%
%ADD17O,1.600000X1.600000*%
%ADD18C,1.800000*%
%ADD19RoundRect,0.250001X-0.462499X-1.074999X0.462499X-1.074999X0.462499X1.074999X-0.462499X1.074999X0*%
%ADD20RoundRect,0.237500X-0.287500X-0.237500X0.287500X-0.237500X0.287500X0.237500X-0.287500X0.237500X0*%
%ADD21C,1.950000*%
%ADD22C,1.500000*%
%ADD23R,2.500000X1.500000*%
%ADD24O,2.500000X1.500000*%
%ADD25C,1.300000*%
%ADD26RoundRect,0.250000X-1.500000X-0.650000X1.500000X-0.650000X1.500000X0.650000X-1.500000X0.650000X0*%
%ADD27RoundRect,0.250000X-0.400000X-0.625000X0.400000X-0.625000X0.400000X0.625000X-0.400000X0.625000X0*%
%ADD28RoundRect,0.125000X-0.537500X-0.125000X0.537500X-0.125000X0.537500X0.125000X-0.537500X0.125000X0*%
%ADD29RoundRect,0.250000X-0.850000X-0.350000X0.850000X-0.350000X0.850000X0.350000X-0.850000X0.350000X0*%
%ADD30RoundRect,0.249997X-2.950003X-2.650003X2.950003X-2.650003X2.950003X2.650003X-2.950003X2.650003X0*%
%ADD31RoundRect,0.250000X-1.350000X-1.975000X1.350000X-1.975000X1.350000X1.975000X-1.350000X1.975000X0*%
%ADD32RoundRect,0.075000X0.415425X0.521491X-0.521491X-0.415425X-0.415425X-0.521491X0.521491X0.415425X0*%
%ADD33RoundRect,0.075000X-0.415425X0.521491X-0.521491X0.415425X0.415425X-0.521491X0.521491X-0.415425X0*%
%ADD34C,3.250000*%
%ADD35RoundRect,0.248000X0.552000X-0.552000X0.552000X0.552000X-0.552000X0.552000X-0.552000X-0.552000X0*%
%ADD36C,1.600000*%
%ADD37C,2.200000*%
%ADD38O,0.800000X0.800000*%
%ADD39R,0.450000X1.300000*%
%ADD40O,1.150000X1.800000*%
%ADD41O,1.450000X2.000000*%
%ADD42RoundRect,0.250001X-0.462499X-0.624999X0.462499X-0.624999X0.462499X0.624999X-0.462499X0.624999X0*%
%ADD43R,1.530000X1.530000*%
%ADD44C,1.530000*%
%ADD45R,1.750000X0.450000*%
%ADD46C,2.000000*%
%ADD47R,1.700000X1.700000*%
%ADD48O,1.700000X1.700000*%
G04 APERTURE END LIST*
D10*
%TO.C,REF\u002A\u002A*%
X140000000Y-90000000D03*
%TD*%
%TO.C,REF\u002A\u002A*%
X140000000Y-10000000D03*
%TD*%
%TO.C,REF\u002A\u002A*%
X10000000Y-90000000D03*
%TD*%
%TO.C,REF\u002A\u002A*%
X10000000Y-10000000D03*
%TD*%
D11*
%TO.C,C9*%
X-212652500Y24050000D03*
X-210927500Y24050000D03*
%TD*%
D12*
%TO.C,R7*%
X-204002500Y26560000D03*
X-202177500Y26560000D03*
%TD*%
D13*
%TO.C,TP2*%
X-142500000Y41850000D03*
%TD*%
D14*
%TO.C,Q3*%
X-138550000Y28350000D03*
X-138550000Y26450000D03*
X-135250000Y27400000D03*
%TD*%
D12*
%TO.C,R42*%
X-125962500Y29850000D03*
X-124137500Y29850000D03*
%TD*%
D11*
%TO.C,C10*%
X-212652500Y21540000D03*
X-210927500Y21540000D03*
%TD*%
D12*
%TO.C,R58*%
X-166262500Y-28570000D03*
X-164437500Y-28570000D03*
%TD*%
%TO.C,R36*%
X-125962500Y44910000D03*
X-124137500Y44910000D03*
%TD*%
D15*
%TO.C,D6*%
X-138855000Y40300000D03*
X-136055000Y40300000D03*
%TD*%
D16*
%TO.C,U8*%
X-183970000Y-15380000D03*
D17*
X-183970000Y-17920000D03*
X-183970000Y-20460000D03*
X-183970000Y-23000000D03*
X-176350000Y-23000000D03*
X-176350000Y-20460000D03*
X-176350000Y-17920000D03*
X-176350000Y-15380000D03*
%TD*%
D12*
%TO.C,R3*%
X-208352500Y24050000D03*
X-206527500Y24050000D03*
%TD*%
D13*
%TO.C,TP3*%
X-142500000Y37300000D03*
%TD*%
D18*
%TO.C,J12*%
X-183040000Y-28630000D03*
X-183040000Y-33710000D03*
X-185580000Y-28630000D03*
X-185580000Y-33710000D03*
%TD*%
D19*
%TO.C,L1*%
X-193877500Y14600000D03*
X-190902500Y14600000D03*
%TD*%
D12*
%TO.C,R23*%
X-146962500Y20760000D03*
X-145137500Y20760000D03*
%TD*%
D20*
%TO.C,D11*%
X-117180000Y37020000D03*
X-115430000Y37020000D03*
%TD*%
D12*
%TO.C,R53*%
X-170612500Y-36100000D03*
X-168787500Y-36100000D03*
%TD*%
%TO.C,R5*%
X-208352500Y19030000D03*
X-206527500Y19030000D03*
%TD*%
%TO.C,R62*%
X-161912500Y-18530000D03*
X-160087500Y-18530000D03*
%TD*%
D20*
%TO.C,D17*%
X-112785000Y37020000D03*
X-111035000Y37020000D03*
%TD*%
D12*
%TO.C,R28*%
X-130312500Y44910000D03*
X-128487500Y44910000D03*
%TD*%
D21*
%TO.C,J5*%
X139530000Y-39600000D03*
X147150000Y-39600000D03*
X139530000Y-34520000D03*
X147150000Y-34520000D03*
%TD*%
D12*
%TO.C,TH1*%
X-146962500Y13230000D03*
X-145137500Y13230000D03*
%TD*%
D11*
%TO.C,C12*%
X-155612500Y23270000D03*
X-153887500Y23270000D03*
%TD*%
D22*
%TO.C,Y1*%
X-214290000Y14450000D03*
X-209410000Y14450000D03*
%TD*%
D11*
%TO.C,C3*%
X-217002500Y24050000D03*
X-215277500Y24050000D03*
%TD*%
D12*
%TO.C,R45*%
X-121612500Y42400000D03*
X-119787500Y42400000D03*
%TD*%
D20*
%TO.C,D7*%
X-117180000Y47380000D03*
X-115430000Y47380000D03*
%TD*%
D23*
%TO.C,C4*%
X-189690000Y46615000D03*
D24*
X-189690000Y41615000D03*
%TD*%
D12*
%TO.C,R33*%
X-130312500Y32360000D03*
X-128487500Y32360000D03*
%TD*%
%TO.C,R19*%
X-151312500Y13230000D03*
X-149487500Y13230000D03*
%TD*%
D20*
%TO.C,D8*%
X-117180000Y44790000D03*
X-115430000Y44790000D03*
%TD*%
D18*
%TO.C,J10*%
X-192230000Y-28630000D03*
X-192230000Y-33710000D03*
X-194770000Y-28630000D03*
X-194770000Y-33710000D03*
%TD*%
D12*
%TO.C,R40*%
X-125962500Y34870000D03*
X-124137500Y34870000D03*
%TD*%
%TO.C,R9*%
X-204002500Y21540000D03*
X-202177500Y21540000D03*
%TD*%
%TO.C,R1*%
X-208352500Y29070000D03*
X-206527500Y29070000D03*
%TD*%
%TO.C,R49*%
X-170612500Y-26060000D03*
X-168787500Y-26060000D03*
%TD*%
%TO.C,R10*%
X-204002500Y19030000D03*
X-202177500Y19030000D03*
%TD*%
%TO.C,R32*%
X-130312500Y34870000D03*
X-128487500Y34870000D03*
%TD*%
%TO.C,R39*%
X-125962500Y37380000D03*
X-124137500Y37380000D03*
%TD*%
D25*
%TO.C,J8*%
X-132000000Y900000D03*
X-132000000Y-1100000D03*
X-130000000Y900000D03*
X-130000000Y-1100000D03*
X-128000000Y900000D03*
X-128000000Y-1100000D03*
X-126000000Y900000D03*
X-126000000Y-1100000D03*
X-124000000Y900000D03*
X-124000000Y-1100000D03*
X-122000000Y900000D03*
X-122000000Y-1100000D03*
X-120000000Y900000D03*
X-120000000Y-1100000D03*
X-118000000Y900000D03*
X-118000000Y-1100000D03*
X-116000000Y900000D03*
X-116000000Y-1100000D03*
X-114000000Y900000D03*
X-114000000Y-1100000D03*
X-112000000Y900000D03*
X-112000000Y-1100000D03*
%TD*%
D12*
%TO.C,R65*%
X-161912500Y-26060000D03*
X-160087500Y-26060000D03*
%TD*%
%TO.C,R2*%
X-208352500Y26560000D03*
X-206527500Y26560000D03*
%TD*%
D20*
%TO.C,D13*%
X-112785000Y47380000D03*
X-111035000Y47380000D03*
%TD*%
D11*
%TO.C,C21*%
X-170562500Y-23550000D03*
X-168837500Y-23550000D03*
%TD*%
D16*
%TO.C,U9*%
X-170250000Y50000D03*
D17*
X-170250000Y-2490000D03*
X-170250000Y-5030000D03*
X-170250000Y-7570000D03*
X-170250000Y-10110000D03*
X-170250000Y-12650000D03*
X-170250000Y-15190000D03*
X-162630000Y-15190000D03*
X-162630000Y-12650000D03*
X-162630000Y-10110000D03*
X-162630000Y-7570000D03*
X-162630000Y-5030000D03*
X-162630000Y-2490000D03*
X-162630000Y50000D03*
%TD*%
D26*
%TO.C,D2*%
X-181855000Y23670000D03*
X-176855000Y23670000D03*
%TD*%
D16*
%TO.C,U11*%
X-148550000Y50000D03*
D17*
X-148550000Y-2490000D03*
X-148550000Y-5030000D03*
X-148550000Y-7570000D03*
X-148550000Y-10110000D03*
X-148550000Y-12650000D03*
X-148550000Y-15190000D03*
X-140930000Y-15190000D03*
X-140930000Y-12650000D03*
X-140930000Y-10110000D03*
X-140930000Y-7570000D03*
X-140930000Y-5030000D03*
X-140930000Y-2490000D03*
X-140930000Y50000D03*
%TD*%
D16*
%TO.C,U10*%
X-159400000Y50000D03*
D17*
X-159400000Y-2490000D03*
X-159400000Y-5030000D03*
X-159400000Y-7570000D03*
X-159400000Y-10110000D03*
X-159400000Y-12650000D03*
X-159400000Y-15190000D03*
X-151780000Y-15190000D03*
X-151780000Y-12650000D03*
X-151780000Y-10110000D03*
X-151780000Y-7570000D03*
X-151780000Y-5030000D03*
X-151780000Y-2490000D03*
X-151780000Y50000D03*
%TD*%
D12*
%TO.C,R14*%
X-151312500Y23270000D03*
X-149487500Y23270000D03*
%TD*%
%TO.C,R34*%
X-130312500Y29850000D03*
X-128487500Y29850000D03*
%TD*%
%TO.C,R54*%
X-166262500Y-18530000D03*
X-164437500Y-18530000D03*
%TD*%
%TO.C,R51*%
X-170612500Y-31080000D03*
X-168787500Y-31080000D03*
%TD*%
%TO.C,R59*%
X-166262500Y-31080000D03*
X-164437500Y-31080000D03*
%TD*%
D11*
%TO.C,C8*%
X-212652500Y26560000D03*
X-210927500Y26560000D03*
%TD*%
D12*
%TO.C,R8*%
X-204002500Y24050000D03*
X-202177500Y24050000D03*
%TD*%
D26*
%TO.C,D3*%
X-181855000Y19120000D03*
X-176855000Y19120000D03*
%TD*%
D27*
%TO.C,R11*%
X-142450000Y10860000D03*
X-139350000Y10860000D03*
%TD*%
D12*
%TO.C,R50*%
X-170612500Y-28570000D03*
X-168787500Y-28570000D03*
%TD*%
%TO.C,R26*%
X-217052500Y-36430000D03*
X-215227500Y-36430000D03*
%TD*%
D11*
%TO.C,C1*%
X-217002500Y29070000D03*
X-215277500Y29070000D03*
%TD*%
D12*
%TO.C,R17*%
X-151312500Y15740000D03*
X-149487500Y15740000D03*
%TD*%
%TO.C,R41*%
X-125962500Y32360000D03*
X-124137500Y32360000D03*
%TD*%
%TO.C,R48*%
X-121612500Y34870000D03*
X-119787500Y34870000D03*
%TD*%
D28*
%TO.C,U5*%
X-138787500Y32925000D03*
X-138787500Y32275000D03*
X-138787500Y31625000D03*
X-138787500Y30975000D03*
X-136512500Y30975000D03*
X-136512500Y31625000D03*
X-136512500Y32275000D03*
X-136512500Y32925000D03*
%TD*%
D12*
%TO.C,R4*%
X-208352500Y21540000D03*
X-206527500Y21540000D03*
%TD*%
%TO.C,R64*%
X-161912500Y-23550000D03*
X-160087500Y-23550000D03*
%TD*%
D29*
%TO.C,Q1*%
X-155050000Y46930000D03*
D30*
X-148750000Y44650000D03*
D29*
X-155050000Y42370000D03*
%TD*%
D12*
%TO.C,R15*%
X-151312500Y20760000D03*
X-149487500Y20760000D03*
%TD*%
%TO.C,R16*%
X-151312500Y18250000D03*
X-149487500Y18250000D03*
%TD*%
D11*
%TO.C,C7*%
X-212652500Y29070000D03*
X-210927500Y29070000D03*
%TD*%
D16*
%TO.C,U7*%
X-194820000Y-15380000D03*
D17*
X-194820000Y-17920000D03*
X-194820000Y-20460000D03*
X-194820000Y-23000000D03*
X-187200000Y-23000000D03*
X-187200000Y-20460000D03*
X-187200000Y-17920000D03*
X-187200000Y-15380000D03*
%TD*%
D11*
%TO.C,C14*%
X-155612500Y18250000D03*
X-153887500Y18250000D03*
%TD*%
D18*
%TO.C,J2*%
X-190670000Y36520000D03*
X-190670000Y31440000D03*
X-193210000Y36520000D03*
X-193210000Y31440000D03*
X-195750000Y36520000D03*
X-195750000Y31440000D03*
X-198290000Y36520000D03*
X-198290000Y31440000D03*
%TD*%
D20*
%TO.C,D10*%
X-117180000Y39610000D03*
X-115430000Y39610000D03*
%TD*%
D12*
%TO.C,R6*%
X-204002500Y29070000D03*
X-202177500Y29070000D03*
%TD*%
D15*
%TO.C,D4*%
X-138855000Y47000000D03*
X-136055000Y47000000D03*
%TD*%
D28*
%TO.C,U4*%
X-138787500Y37375000D03*
X-138787500Y36725000D03*
X-138787500Y36075000D03*
X-138787500Y35425000D03*
X-136512500Y35425000D03*
X-136512500Y36075000D03*
X-136512500Y36725000D03*
X-136512500Y37375000D03*
%TD*%
D12*
%TO.C,R66*%
X-161912500Y-28570000D03*
X-160087500Y-28570000D03*
%TD*%
D31*
%TO.C,R18*%
X-141500000Y15510000D03*
X-136300000Y15510000D03*
%TD*%
D12*
%TO.C,R47*%
X-121612500Y37380000D03*
X-119787500Y37380000D03*
%TD*%
D32*
%TO.C,U2*%
X84660846Y-48824435D03*
X84307293Y-48470882D03*
X83953740Y-48117328D03*
X83600186Y-47763775D03*
X83246633Y-47410221D03*
X82893079Y-47056668D03*
X82539526Y-46703115D03*
X82185973Y-46349561D03*
X81832419Y-45996008D03*
X81478866Y-45642454D03*
X81125312Y-45288901D03*
X80771759Y-44935348D03*
X80418206Y-44581794D03*
X80064652Y-44228241D03*
X79711099Y-43874688D03*
X79357546Y-43521134D03*
X79003992Y-43167581D03*
X78650439Y-42814027D03*
X78296885Y-42460474D03*
X77943332Y-42106921D03*
X77589779Y-41753367D03*
X77236225Y-41399814D03*
X76882672Y-41046260D03*
X76529118Y-40692707D03*
X76175565Y-40339154D03*
D33*
X73824435Y-40339154D03*
X73470882Y-40692707D03*
X73117328Y-41046260D03*
X72763775Y-41399814D03*
X72410221Y-41753367D03*
X72056668Y-42106921D03*
X71703115Y-42460474D03*
X71349561Y-42814027D03*
X70996008Y-43167581D03*
X70642454Y-43521134D03*
X70288901Y-43874688D03*
X69935348Y-44228241D03*
X69581794Y-44581794D03*
X69228241Y-44935348D03*
X68874688Y-45288901D03*
X68521134Y-45642454D03*
X68167581Y-45996008D03*
X67814027Y-46349561D03*
X67460474Y-46703115D03*
X67106921Y-47056668D03*
X66753367Y-47410221D03*
X66399814Y-47763775D03*
X66046260Y-48117328D03*
X65692707Y-48470882D03*
X65339154Y-48824435D03*
D32*
X65339154Y-51175565D03*
X65692707Y-51529118D03*
X66046260Y-51882672D03*
X66399814Y-52236225D03*
X66753367Y-52589779D03*
X67106921Y-52943332D03*
X67460474Y-53296885D03*
X67814027Y-53650439D03*
X68167581Y-54003992D03*
X68521134Y-54357546D03*
X68874688Y-54711099D03*
X69228241Y-55064652D03*
X69581794Y-55418206D03*
X69935348Y-55771759D03*
X70288901Y-56125312D03*
X70642454Y-56478866D03*
X70996008Y-56832419D03*
X71349561Y-57185973D03*
X71703115Y-57539526D03*
X72056668Y-57893079D03*
X72410221Y-58246633D03*
X72763775Y-58600186D03*
X73117328Y-58953740D03*
X73470882Y-59307293D03*
X73824435Y-59660846D03*
D33*
X76175565Y-59660846D03*
X76529118Y-59307293D03*
X76882672Y-58953740D03*
X77236225Y-58600186D03*
X77589779Y-58246633D03*
X77943332Y-57893079D03*
X78296885Y-57539526D03*
X78650439Y-57185973D03*
X79003992Y-56832419D03*
X79357546Y-56478866D03*
X79711099Y-56125312D03*
X80064652Y-55771759D03*
X80418206Y-55418206D03*
X80771759Y-55064652D03*
X81125312Y-54711099D03*
X81478866Y-54357546D03*
X81832419Y-54003992D03*
X82185973Y-53650439D03*
X82539526Y-53296885D03*
X82893079Y-52943332D03*
X83246633Y-52589779D03*
X83600186Y-52236225D03*
X83953740Y-51882672D03*
X84307293Y-51529118D03*
X84660846Y-51175565D03*
%TD*%
D11*
%TO.C,C5*%
X-217002500Y21540000D03*
X-215277500Y21540000D03*
%TD*%
D20*
%TO.C,D9*%
X-117180000Y42200000D03*
X-115430000Y42200000D03*
%TD*%
D25*
%TO.C,J7*%
X-132000000Y-26000000D03*
X-132000000Y-28000000D03*
X-130000000Y-26000000D03*
X-130000000Y-28000000D03*
X-128000000Y-26000000D03*
X-128000000Y-28000000D03*
X-126000000Y-26000000D03*
X-126000000Y-28000000D03*
X-124000000Y-26000000D03*
X-124000000Y-28000000D03*
X-122000000Y-26000000D03*
X-122000000Y-28000000D03*
X-120000000Y-26000000D03*
X-120000000Y-28000000D03*
%TD*%
D34*
%TO.C,J11*%
X-202710000Y2210000D03*
X-202710000Y-9220000D03*
D35*
X-211600000Y940000D03*
D36*
X-209060000Y-330000D03*
X-211600000Y-1600000D03*
X-209060000Y-2870000D03*
X-211600000Y-4140000D03*
X-209060000Y-5410000D03*
X-211600000Y-6680000D03*
X-209060000Y-7950000D03*
D37*
X-205760000Y4395000D03*
X-205760000Y-11405000D03*
%TD*%
D20*
%TO.C,D16*%
X-112785000Y39610000D03*
X-111035000Y39610000D03*
%TD*%
D29*
%TO.C,U3*%
X-155050000Y30830000D03*
D30*
X-148750000Y28550000D03*
D29*
X-155050000Y26270000D03*
%TD*%
D12*
%TO.C,R30*%
X-130312500Y39890000D03*
X-128487500Y39890000D03*
%TD*%
D21*
%TO.C,J6*%
X139530000Y-54600000D03*
X147150000Y-54600000D03*
X139530000Y-49520000D03*
X147150000Y-49520000D03*
%TD*%
D20*
%TO.C,D12*%
X-117180000Y34430000D03*
X-115430000Y34430000D03*
%TD*%
D12*
%TO.C,R60*%
X-166262500Y-33590000D03*
X-164437500Y-33590000D03*
%TD*%
D31*
%TO.C,R13*%
X-141500000Y21520000D03*
X-136300000Y21520000D03*
%TD*%
D20*
%TO.C,D14*%
X-112785000Y44790000D03*
X-111035000Y44790000D03*
%TD*%
D38*
%TO.C,J3*%
X-192400000Y22880000D03*
X-187400000Y22880000D03*
D39*
X-191200000Y23980000D03*
X-190550000Y23980000D03*
X-189900000Y23980000D03*
X-189250000Y23980000D03*
X-188600000Y23980000D03*
D40*
X-193775000Y20130000D03*
D41*
X-193625000Y23930000D03*
X-186175000Y23930000D03*
D40*
X-186025000Y20130000D03*
%TD*%
D12*
%TO.C,R29*%
X-130312500Y42400000D03*
X-128487500Y42400000D03*
%TD*%
D15*
%TO.C,D1*%
X-178045000Y47000000D03*
X-175245000Y47000000D03*
%TD*%
D12*
%TO.C,R55*%
X-166262500Y-21040000D03*
X-164437500Y-21040000D03*
%TD*%
D11*
%TO.C,C16*%
X-155612500Y13230000D03*
X-153887500Y13230000D03*
%TD*%
D12*
%TO.C,R27*%
X-130312500Y47420000D03*
X-128487500Y47420000D03*
%TD*%
D42*
%TO.C,F1*%
X-193877500Y10850000D03*
X-190902500Y10850000D03*
%TD*%
D12*
%TO.C,R56*%
X-166262500Y-23550000D03*
X-164437500Y-23550000D03*
%TD*%
%TO.C,R37*%
X-125962500Y42400000D03*
X-124137500Y42400000D03*
%TD*%
%TO.C,R38*%
X-125962500Y39890000D03*
X-124137500Y39890000D03*
%TD*%
D43*
%TO.C,U6*%
X-216270000Y-15350000D03*
D44*
X-216270000Y-17890000D03*
X-216270000Y-20430000D03*
X-216270000Y-22970000D03*
X-216270000Y-25510000D03*
X-216270000Y-28050000D03*
X-216270000Y-30590000D03*
X-216270000Y-33130000D03*
X-198490000Y-15350000D03*
X-198490000Y-17890000D03*
X-198490000Y-20430000D03*
X-198490000Y-22970000D03*
X-198490000Y-25510000D03*
X-198490000Y-28050000D03*
X-198490000Y-30590000D03*
X-198490000Y-33130000D03*
%TD*%
D12*
%TO.C,R61*%
X-166262500Y-36100000D03*
X-164437500Y-36100000D03*
%TD*%
D45*
%TO.C,U1*%
X-184020000Y38295000D03*
X-184020000Y37645000D03*
X-184020000Y36995000D03*
X-184020000Y36345000D03*
X-184020000Y35695000D03*
X-184020000Y35045000D03*
X-184020000Y34395000D03*
X-184020000Y33745000D03*
X-184020000Y33095000D03*
X-184020000Y32445000D03*
X-184020000Y31795000D03*
X-184020000Y31145000D03*
X-184020000Y30495000D03*
X-184020000Y29845000D03*
X-176820000Y29845000D03*
X-176820000Y30495000D03*
X-176820000Y31145000D03*
X-176820000Y31795000D03*
X-176820000Y32445000D03*
X-176820000Y33095000D03*
X-176820000Y33745000D03*
X-176820000Y34395000D03*
X-176820000Y35045000D03*
X-176820000Y35695000D03*
X-176820000Y36345000D03*
X-176820000Y36995000D03*
X-176820000Y37645000D03*
X-176820000Y38295000D03*
%TD*%
D12*
%TO.C,R21*%
X-151312500Y8210000D03*
X-149487500Y8210000D03*
%TD*%
%TO.C,R46*%
X-121612500Y39890000D03*
X-119787500Y39890000D03*
%TD*%
D11*
%TO.C,C6*%
X-217002500Y19030000D03*
X-215277500Y19030000D03*
%TD*%
D46*
%TO.C,SW1*%
X-182400000Y14820000D03*
X-175900000Y14820000D03*
X-182400000Y10320000D03*
X-175900000Y10320000D03*
%TD*%
D11*
%TO.C,C11*%
X-212652500Y19030000D03*
X-210927500Y19030000D03*
%TD*%
%TO.C,C20*%
X-170562500Y-21040000D03*
X-168837500Y-21040000D03*
%TD*%
%TO.C,C18*%
X-155612500Y8210000D03*
X-153887500Y8210000D03*
%TD*%
%TO.C,C2*%
X-217002500Y26560000D03*
X-215277500Y26560000D03*
%TD*%
D21*
%TO.C,J4*%
X139530000Y-24600000D03*
X147150000Y-24600000D03*
X139530000Y-19520000D03*
X147150000Y-19520000D03*
%TD*%
D47*
%TO.C,J1*%
X-197640000Y23620000D03*
D48*
X-197640000Y21080000D03*
X-197640000Y18540000D03*
X-197640000Y16000000D03*
X-197640000Y13460000D03*
X-197640000Y10920000D03*
%TD*%
D12*
%TO.C,R43*%
X-121612500Y47420000D03*
X-119787500Y47420000D03*
%TD*%
D29*
%TO.C,Q2*%
X-155050000Y38880000D03*
D30*
X-148750000Y36600000D03*
D29*
X-155050000Y34320000D03*
%TD*%
D13*
%TO.C,TP1*%
X-142500000Y46400000D03*
%TD*%
D12*
%TO.C,R57*%
X-166262500Y-26060000D03*
X-164437500Y-26060000D03*
%TD*%
%TO.C,R20*%
X-151312500Y10720000D03*
X-149487500Y10720000D03*
%TD*%
D27*
%TO.C,R12*%
X-142450000Y7570000D03*
X-139350000Y7570000D03*
%TD*%
D12*
%TO.C,R35*%
X-125962500Y47420000D03*
X-124137500Y47420000D03*
%TD*%
D15*
%TO.C,D5*%
X-138855000Y43650000D03*
X-136055000Y43650000D03*
%TD*%
D12*
%TO.C,R52*%
X-170612500Y-33590000D03*
X-168787500Y-33590000D03*
%TD*%
%TO.C,R44*%
X-121612500Y44910000D03*
X-119787500Y44910000D03*
%TD*%
%TO.C,R22*%
X-146962500Y23270000D03*
X-145137500Y23270000D03*
%TD*%
%TO.C,R63*%
X-161912500Y-21040000D03*
X-160087500Y-21040000D03*
%TD*%
%TO.C,R25*%
X-146962500Y15740000D03*
X-145137500Y15740000D03*
%TD*%
%TO.C,R31*%
X-130312500Y37380000D03*
X-128487500Y37380000D03*
%TD*%
D13*
%TO.C,TP4*%
X-142500000Y32750000D03*
%TD*%
D11*
%TO.C,C15*%
X-155612500Y15740000D03*
X-153887500Y15740000D03*
%TD*%
%TO.C,C13*%
X-155612500Y20760000D03*
X-153887500Y20760000D03*
%TD*%
D20*
%TO.C,D15*%
X-112785000Y42200000D03*
X-111035000Y42200000D03*
%TD*%
D25*
%TO.C,J9*%
X-132000000Y-12550000D03*
X-132000000Y-14550000D03*
X-130000000Y-12550000D03*
X-130000000Y-14550000D03*
X-128000000Y-12550000D03*
X-128000000Y-14550000D03*
X-126000000Y-12550000D03*
X-126000000Y-14550000D03*
X-124000000Y-12550000D03*
X-124000000Y-14550000D03*
X-122000000Y-12550000D03*
X-122000000Y-14550000D03*
X-120000000Y-12550000D03*
X-120000000Y-14550000D03*
X-118000000Y-12550000D03*
X-118000000Y-14550000D03*
X-116000000Y-12550000D03*
X-116000000Y-14550000D03*
%TD*%
D11*
%TO.C,C19*%
X-170562500Y-18530000D03*
X-168837500Y-18530000D03*
%TD*%
D12*
%TO.C,R24*%
X-146962500Y18250000D03*
X-145137500Y18250000D03*
%TD*%
D11*
%TO.C,C17*%
X-155612500Y10720000D03*
X-153887500Y10720000D03*
%TD*%
M02*
