M48
; DRILL file {KiCad 7.0.1} date Mon Sep 18 22:16:33 2023
; FORMAT={-:-/ absolute / inch / decimal}
; #@! TF.CreationDate,2023-09-18T22:16:33+09:00
; #@! TF.GenerationSoftware,Kicad,Pcbnew,7.0.1
; #@! TF.FileFunction,Plated,1,2,PTH
FMAT,2
INCH
; #@! TA.AperFunction,Plated,PTH,ComponentDrill
T1C0.0197
; #@! TA.AperFunction,Plated,PTH,ComponentDrill
T2C0.0217
; #@! TA.AperFunction,Plated,PTH,ComponentDrill
T3C0.0315
; #@! TA.AperFunction,Plated,PTH,ComponentDrill
T4C0.0335
; #@! TA.AperFunction,Plated,PTH,ComponentDrill
T5C0.0354
; #@! TA.AperFunction,Plated,PTH,ComponentDrill
T6C0.0394
; #@! TA.AperFunction,Plated,PTH,ComponentDrill
T7C0.0402
; #@! TA.AperFunction,Plated,PTH,ComponentDrill
T8C0.0433
; #@! TA.AperFunction,Plated,PTH,ComponentDrill
T9C0.0472
; #@! TA.AperFunction,Plated,PTH,ComponentDrill
T10C0.0512
; #@! TA.AperFunction,Plated,PTH,ComponentDrill
T11C0.0630
%
G90
G05
T3
X-8.4366Y0.5689
X-8.2445Y0.5689
X-7.6701Y-0.6055
X-7.6701Y-0.7055
X-7.6701Y-0.8055
X-7.6701Y-0.9055
X-7.3701Y-0.6055
X-7.3701Y-0.7055
X-7.3701Y-0.8055
X-7.3701Y-0.9055
X-7.2429Y-0.6055
X-7.2429Y-0.7055
X-7.2429Y-0.8055
X-7.2429Y-0.9055
X-6.9429Y-0.6055
X-6.9429Y-0.7055
X-6.9429Y-0.8055
X-6.9429Y-0.9055
X-6.7028Y0.002
X-6.7028Y-0.098
X-6.7028Y-0.198
X-6.7028Y-0.298
X-6.7028Y-0.398
X-6.7028Y-0.498
X-6.7028Y-0.598
X-6.4028Y0.002
X-6.4028Y-0.098
X-6.4028Y-0.198
X-6.4028Y-0.298
X-6.4028Y-0.398
X-6.4028Y-0.498
X-6.4028Y-0.598
X-6.2756Y0.002
X-6.2756Y-0.098
X-6.2756Y-0.198
X-6.2756Y-0.298
X-6.2756Y-0.398
X-6.2756Y-0.498
X-6.2756Y-0.598
X-5.9756Y0.002
X-5.9756Y-0.098
X-5.9756Y-0.198
X-5.9756Y-0.298
X-5.9756Y-0.398
X-5.9756Y-0.498
X-5.9756Y-0.598
X-5.8484Y0.002
X-5.8484Y-0.098
X-5.8484Y-0.198
X-5.8484Y-0.298
X-5.8484Y-0.398
X-5.8484Y-0.498
X-5.8484Y-0.598
X-5.5484Y0.002
X-5.5484Y-0.098
X-5.5484Y-0.198
X-5.5484Y-0.298
X-5.5484Y-0.398
X-5.5484Y-0.498
X-5.5484Y-0.598
X-5.1969Y0.0354
X-5.1969Y-0.0433
X-5.1969Y-0.4941
X-5.1969Y-0.5728
X-5.1969Y-1.0236
X-5.1969Y-1.1024
X-5.1181Y0.0354
X-5.1181Y-0.0433
X-5.1181Y-0.4941
X-5.1181Y-0.5728
X-5.1181Y-1.0236
X-5.1181Y-1.1024
X-5.0394Y0.0354
X-5.0394Y-0.0433
X-5.0394Y-0.4941
X-5.0394Y-0.5728
X-5.0394Y-1.0236
X-5.0394Y-1.1024
X-4.9606Y0.0354
X-4.9606Y-0.0433
X-4.9606Y-0.4941
X-4.9606Y-0.5728
X-4.9606Y-1.0236
X-4.9606Y-1.1024
X-4.8819Y0.0354
X-4.8819Y-0.0433
X-4.8819Y-0.4941
X-4.8819Y-0.5728
X-4.8819Y-1.0236
X-4.8819Y-1.1024
X-4.8031Y0.0354
X-4.8031Y-0.0433
X-4.8031Y-0.4941
X-4.8031Y-0.5728
X-4.8031Y-1.0236
X-4.8031Y-1.1024
X-4.7244Y0.0354
X-4.7244Y-0.0433
X-4.7244Y-0.4941
X-4.7244Y-0.5728
X-4.7244Y-1.0236
X-4.7244Y-1.1024
X-4.6457Y0.0354
X-4.6457Y-0.0433
X-4.6457Y-0.4941
X-4.6457Y-0.5728
X-4.5669Y0.0354
X-4.5669Y-0.0433
X-4.5669Y-0.4941
X-4.5669Y-0.5728
X-4.4882Y0.0354
X-4.4882Y-0.0433
X-4.4094Y0.0354
X-4.4094Y-0.0433
T5
X-8.3307Y0.037
X-8.3307Y-0.063
X-8.3307Y-0.163
X-8.3307Y-0.263
X-8.2307Y-0.013
X-8.2307Y-0.113
X-8.2307Y-0.213
X-8.2307Y-0.313
T6
X-7.7811Y0.9299
X-7.7811Y0.8299
X-7.7811Y0.7299
X-7.7811Y0.6299
X-7.7811Y0.5299
X-7.7811Y0.4299
T7
X-8.5146Y-0.6043
X-8.5146Y-0.7043
X-8.5146Y-0.8043
X-8.5146Y-0.9043
X-8.5146Y-1.0043
X-8.5146Y-1.1043
X-8.5146Y-1.2043
X-8.5146Y-1.3043
X-7.8146Y-0.6043
X-7.8146Y-0.7043
X-7.8146Y-0.8043
X-7.8146Y-0.9043
X-7.8146Y-1.0043
X-7.8146Y-1.1043
X-7.8146Y-1.2043
X-7.8146Y-1.3043
T8
X-7.1811Y0.5835
X-7.1811Y0.4063
X-6.9252Y0.5835
X-6.9252Y0.4063
T9
X-7.8067Y1.4378
X-7.8067Y1.2378
X-7.7067Y1.4378
X-7.7067Y1.2378
X-7.6681Y-1.1272
X-7.6681Y-1.3272
X-7.6067Y1.4378
X-7.6067Y1.2378
X-7.5681Y-1.1272
X-7.5681Y-1.3272
X-7.5067Y1.4378
X-7.5067Y1.2378
X-7.3063Y-1.1272
X-7.3063Y-1.3272
X-7.2063Y-1.1272
X-7.2063Y-1.3272
X-5.6102Y1.8268
X-5.6102Y1.6476
X-5.6102Y1.4685
X-5.6102Y1.2894
T10
X5.4933Y-0.7685
X5.4933Y-0.9685
X5.4933Y-1.3591
X5.4933Y-1.5591
X5.4933Y-1.9496
X5.4933Y-2.1496
X5.7933Y-0.7685
X5.7933Y-0.9685
X5.7933Y-1.3591
X5.7933Y-1.5591
X5.7933Y-1.9496
X5.7933Y-2.1496
T11
X-8.1008Y0.173
X-8.1008Y-0.449
T1
G00X-7.4878Y1.8352
M15
G01X-7.4484Y1.8352
M16
G05
G00X-7.4878Y1.6384
M15
G01X-7.4484Y1.6384
M16
G05
T2
G00X-7.6289Y0.8053
M15
G01X-7.6289Y0.7797
M16
G05
G00X-7.3238Y0.8053
M15
G01X-7.3238Y0.7797
M16
G05
T4
G00X-7.623Y0.953
M15
G01X-7.623Y0.9313
M16
G05
G00X-7.3297Y0.953
M15
G01X-7.3297Y0.9313
M16
G05
T0
M30
