%TF.GenerationSoftware,KiCad,Pcbnew,7.0.1*%
%TF.CreationDate,2023-09-18T22:16:33+09:00*%
%TF.ProjectId,LaunchController,4c61756e-6368-4436-9f6e-74726f6c6c65,rev?*%
%TF.SameCoordinates,Original*%
%TF.FileFunction,Copper,L2,Bot*%
%TF.FilePolarity,Positive*%
%FSLAX46Y46*%
G04 Gerber Fmt 4.6, Leading zero omitted, Abs format (unit mm)*
G04 Created by KiCad (PCBNEW 7.0.1) date 2023-09-18 22:16:33*
%MOMM*%
%LPD*%
G01*
G04 APERTURE LIST*
G04 Aperture macros list*
%AMRoundRect*
0 Rectangle with rounded corners*
0 $1 Rounding radius*
0 $2 $3 $4 $5 $6 $7 $8 $9 X,Y pos of 4 corners*
0 Add a 4 corners polygon primitive as box body*
4,1,4,$2,$3,$4,$5,$6,$7,$8,$9,$2,$3,0*
0 Add four circle primitives for the rounded corners*
1,1,$1+$1,$2,$3*
1,1,$1+$1,$4,$5*
1,1,$1+$1,$6,$7*
1,1,$1+$1,$8,$9*
0 Add four rect primitives between the rounded corners*
20,1,$1+$1,$2,$3,$4,$5,0*
20,1,$1+$1,$4,$5,$6,$7,0*
20,1,$1+$1,$6,$7,$8,$9,0*
20,1,$1+$1,$8,$9,$2,$3,0*%
G04 Aperture macros list end*
%TA.AperFunction,ComponentPad*%
%ADD10C,2.500000*%
%TD*%
%TA.AperFunction,ComponentPad*%
%ADD11R,1.600000X1.600000*%
%TD*%
%TA.AperFunction,ComponentPad*%
%ADD12O,1.600000X1.600000*%
%TD*%
%TA.AperFunction,ComponentPad*%
%ADD13C,1.800000*%
%TD*%
%TA.AperFunction,ComponentPad*%
%ADD14C,1.950000*%
%TD*%
%TA.AperFunction,ComponentPad*%
%ADD15C,1.500000*%
%TD*%
%TA.AperFunction,ComponentPad*%
%ADD16R,2.500000X1.500000*%
%TD*%
%TA.AperFunction,ComponentPad*%
%ADD17O,2.500000X1.500000*%
%TD*%
%TA.AperFunction,ComponentPad*%
%ADD18C,1.300000*%
%TD*%
%TA.AperFunction,ComponentPad*%
%ADD19RoundRect,0.248000X0.552000X-0.552000X0.552000X0.552000X-0.552000X0.552000X-0.552000X-0.552000X0*%
%TD*%
%TA.AperFunction,ComponentPad*%
%ADD20C,1.600000*%
%TD*%
%TA.AperFunction,ComponentPad*%
%ADD21C,2.200000*%
%TD*%
%TA.AperFunction,ComponentPad*%
%ADD22O,1.150000X1.800000*%
%TD*%
%TA.AperFunction,ComponentPad*%
%ADD23O,1.450000X2.000000*%
%TD*%
%TA.AperFunction,ComponentPad*%
%ADD24R,1.530000X1.530000*%
%TD*%
%TA.AperFunction,ComponentPad*%
%ADD25C,1.530000*%
%TD*%
%TA.AperFunction,ComponentPad*%
%ADD26C,2.000000*%
%TD*%
%TA.AperFunction,ComponentPad*%
%ADD27R,1.700000X1.700000*%
%TD*%
%TA.AperFunction,ComponentPad*%
%ADD28O,1.700000X1.700000*%
%TD*%
G04 APERTURE END LIST*
D10*
%TO.P,TP2,1,1*%
%TO.N,LED_12V*%
X-142500000Y41850000D03*
%TD*%
D11*
%TO.P,U8,1,RO*%
%TO.N,UART1_RX*%
X-183970000Y-15380000D03*
D12*
%TO.P,U8,2,~{RE}*%
%TO.N,CTL_RS485_DERE*%
X-183970000Y-17920000D03*
%TO.P,U8,3,DE*%
X-183970000Y-20460000D03*
%TO.P,U8,4,DI*%
%TO.N,UART1_TX*%
X-183970000Y-23000000D03*
%TO.P,U8,5,GND*%
%TO.N,GND*%
X-176350000Y-23000000D03*
%TO.P,U8,6,A*%
%TO.N,Net-(U8-A)*%
X-176350000Y-20460000D03*
%TO.P,U8,7,B*%
%TO.N,Net-(U8-B)*%
X-176350000Y-17920000D03*
%TO.P,U8,8,VCC*%
%TO.N,LED_5V*%
X-176350000Y-15380000D03*
%TD*%
D10*
%TO.P,TP3,1,1*%
%TO.N,LED_5V*%
X-142500000Y37300000D03*
%TD*%
D13*
%TO.P,J12,1,Pin_1*%
%TO.N,Net-(J12-Pin_1)*%
X-183040000Y-28630000D03*
X-183040000Y-33710000D03*
%TO.P,J12,2,Pin_2*%
%TO.N,Net-(J12-Pin_2)*%
X-185580000Y-28630000D03*
X-185580000Y-33710000D03*
%TD*%
D14*
%TO.P,J5,1,Pin_1*%
%TO.N,GND*%
X139530000Y-39600000D03*
X147150000Y-39600000D03*
%TO.P,J5,2,Pin_2*%
%TO.N,TO_CONVERTER*%
X139530000Y-34520000D03*
X147150000Y-34520000D03*
%TD*%
D15*
%TO.P,Y1,1,1*%
%TO.N,Net-(U2-XTAL2)*%
X-214290000Y14450000D03*
%TO.P,Y1,2,2*%
%TO.N,Net-(U2-XTAL1)*%
X-209410000Y14450000D03*
%TD*%
D16*
%TO.P,C4,1*%
%TO.N,LED_5V*%
X-189690000Y46615000D03*
D17*
%TO.P,C4,2*%
%TO.N,GND*%
X-189690000Y41615000D03*
%TD*%
D13*
%TO.P,J10,1,Pin_1*%
%TO.N,GND*%
X-192230000Y-28630000D03*
X-192230000Y-33710000D03*
%TO.P,J10,2,Pin_2*%
%TO.N,Net-(J10-Pin_2)*%
X-194770000Y-28630000D03*
X-194770000Y-33710000D03*
%TD*%
D18*
%TO.P,J8,1,Pin_1*%
%TO.N,GND*%
X-132000000Y900000D03*
%TO.P,J8,2,Pin_2*%
%TO.N,LED_FB_PURGE*%
X-132000000Y-1100000D03*
%TO.P,J8,3,Pin_3*%
%TO.N,LED_FB_CLOSE*%
X-130000000Y900000D03*
%TO.P,J8,4,Pin_4*%
%TO.N,LED_FB_OPEN*%
X-130000000Y-1100000D03*
%TO.P,J8,5,Pin_5*%
%TO.N,LED_FB_IGNITOR*%
X-128000000Y900000D03*
%TO.P,J8,6,Pin_6*%
%TO.N,LED_FB_O2*%
X-128000000Y-1100000D03*
%TO.P,J8,7,Pin_7*%
%TO.N,LED_FB_DUMP*%
X-126000000Y900000D03*
%TO.P,J8,8,Pin_8*%
%TO.N,LED_FB_FILL*%
X-126000000Y-1100000D03*
%TO.P,J8,9,Pin_9*%
%TO.N,LED_FB_SHIFT*%
X-124000000Y900000D03*
%TO.P,J8,10,Pin_10*%
%TO.N,LED_PURGE*%
X-124000000Y-1100000D03*
%TO.P,J8,11,Pin_11*%
%TO.N,LED_CLOSE*%
X-122000000Y900000D03*
%TO.P,J8,12,Pin_12*%
%TO.N,LED_OPEN*%
X-122000000Y-1100000D03*
%TO.P,J8,13,Pin_13*%
%TO.N,LED_IGNITOR*%
X-120000000Y900000D03*
%TO.P,J8,14,Pin_14*%
%TO.N,LED_O2*%
X-120000000Y-1100000D03*
%TO.P,J8,15,Pin_15*%
%TO.N,LED_DUMP*%
X-118000000Y900000D03*
%TO.P,J8,16,Pin_16*%
%TO.N,LED_FILL*%
X-118000000Y-1100000D03*
%TO.P,J8,17,Pin_17*%
%TO.N,LED_SHIFT*%
X-116000000Y900000D03*
%TO.P,J8,18,Pin_18*%
%TO.N,LED_EMERGENCY*%
X-116000000Y-1100000D03*
%TO.P,J8,19,Pin_19*%
%TO.N,LED_SEQUENCE*%
X-114000000Y900000D03*
%TO.P,J8,20,Pin_20*%
%TO.N,LED_SAFTEY*%
X-114000000Y-1100000D03*
%TO.P,J8,21,Pin_21*%
%TO.N,LED_POWER*%
X-112000000Y900000D03*
%TO.P,J8,22,Pin_22*%
%TO.N,LED_5V*%
X-112000000Y-1100000D03*
%TD*%
D11*
%TO.P,U9,1*%
%TO.N,Net-(R49-Pad2)*%
X-170250000Y50000D03*
D12*
%TO.P,U9,2*%
%TO.N,CTL_RUN*%
X-170250000Y-2490000D03*
%TO.P,U9,3*%
%TO.N,Net-(R51-Pad2)*%
X-170250000Y-5030000D03*
%TO.P,U9,4*%
%TO.N,CTL_KILL*%
X-170250000Y-7570000D03*
%TO.P,U9,5*%
%TO.N,Net-(R53-Pad2)*%
X-170250000Y-10110000D03*
%TO.P,U9,6*%
%TO.N,CTL_SAFETY*%
X-170250000Y-12650000D03*
%TO.P,U9,7,GND*%
%TO.N,GND*%
X-170250000Y-15190000D03*
%TO.P,U9,8*%
%TO.N,CTL_SEQUENCE_START*%
X-162630000Y-15190000D03*
%TO.P,U9,9*%
%TO.N,Net-(R55-Pad2)*%
X-162630000Y-12650000D03*
%TO.P,U9,10*%
%TO.N,CTL_EMERGENCY_STOP*%
X-162630000Y-10110000D03*
%TO.P,U9,11*%
%TO.N,Net-(R57-Pad2)*%
X-162630000Y-7570000D03*
%TO.P,U9,12*%
%TO.N,CTL_CONFIRM_1*%
X-162630000Y-5030000D03*
%TO.P,U9,13*%
%TO.N,Net-(R59-Pad2)*%
X-162630000Y-2490000D03*
%TO.P,U9,14,VCC*%
%TO.N,LED_5V*%
X-162630000Y50000D03*
%TD*%
D11*
%TO.P,U11,1*%
%TO.N,Net-(R56-Pad2)*%
X-148550000Y50000D03*
D12*
%TO.P,U11,2*%
%TO.N,CTL_O2*%
X-148550000Y-2490000D03*
%TO.P,U11,3*%
%TO.N,Net-(R58-Pad2)*%
X-148550000Y-5030000D03*
%TO.P,U11,4*%
%TO.N,CTL_IGNITOR*%
X-148550000Y-7570000D03*
%TO.P,U11,5*%
%TO.N,Net-(R60-Pad2)*%
X-148550000Y-10110000D03*
%TO.P,U11,6*%
%TO.N,CTL_OPEN*%
X-148550000Y-12650000D03*
%TO.P,U11,7,GND*%
%TO.N,GND*%
X-148550000Y-15190000D03*
%TO.P,U11,8*%
%TO.N,CTL_CLOSE*%
X-140930000Y-15190000D03*
%TO.P,U11,9*%
%TO.N,Net-(R62-Pad2)*%
X-140930000Y-12650000D03*
%TO.P,U11,10*%
%TO.N,CTL_PURGE*%
X-140930000Y-10110000D03*
%TO.P,U11,11*%
%TO.N,Net-(R64-Pad2)*%
X-140930000Y-7570000D03*
%TO.P,U11,12*%
%TO.N,unconnected-(U11-Pad12)*%
X-140930000Y-5030000D03*
%TO.P,U11,13*%
%TO.N,Net-(R66-Pad2)*%
X-140930000Y-2490000D03*
%TO.P,U11,14,VCC*%
%TO.N,LED_5V*%
X-140930000Y50000D03*
%TD*%
D11*
%TO.P,U10,1*%
%TO.N,Net-(R61-Pad2)*%
X-159400000Y50000D03*
D12*
%TO.P,U10,2*%
%TO.N,CTL_CONFIRM_2*%
X-159400000Y-2490000D03*
%TO.P,U10,3*%
%TO.N,Net-(R63-Pad2)*%
X-159400000Y-5030000D03*
%TO.P,U10,4*%
%TO.N,CTL_CONFIRM_3*%
X-159400000Y-7570000D03*
%TO.P,U10,5*%
%TO.N,Net-(R65-Pad2)*%
X-159400000Y-10110000D03*
%TO.P,U10,6*%
%TO.N,CTL_RESET*%
X-159400000Y-12650000D03*
%TO.P,U10,7,GND*%
%TO.N,GND*%
X-159400000Y-15190000D03*
%TO.P,U10,8*%
%TO.N,CTL_SHIFT*%
X-151780000Y-15190000D03*
%TO.P,U10,9*%
%TO.N,Net-(R50-Pad2)*%
X-151780000Y-12650000D03*
%TO.P,U10,10*%
%TO.N,CTL_FILL*%
X-151780000Y-10110000D03*
%TO.P,U10,11*%
%TO.N,Net-(R52-Pad2)*%
X-151780000Y-7570000D03*
%TO.P,U10,12*%
%TO.N,CTL_DUMP*%
X-151780000Y-5030000D03*
%TO.P,U10,13*%
%TO.N,Net-(R54-Pad2)*%
X-151780000Y-2490000D03*
%TO.P,U10,14,VCC*%
%TO.N,LED_5V*%
X-151780000Y50000D03*
%TD*%
D11*
%TO.P,U7,1,A0*%
%TO.N,GND*%
X-194820000Y-15380000D03*
D12*
%TO.P,U7,2,A1*%
X-194820000Y-17920000D03*
%TO.P,U7,3,A2*%
X-194820000Y-20460000D03*
%TO.P,U7,4,GND*%
X-194820000Y-23000000D03*
%TO.P,U7,5,SDA*%
%TO.N,I2C_SDA*%
X-187200000Y-23000000D03*
%TO.P,U7,6,SCL*%
%TO.N,I2C_SCL*%
X-187200000Y-20460000D03*
%TO.P,U7,7,WP*%
%TO.N,GND*%
X-187200000Y-17920000D03*
%TO.P,U7,8,VCC*%
%TO.N,LED_5V*%
X-187200000Y-15380000D03*
%TD*%
D13*
%TO.P,J2,1,Pin_1*%
%TO.N,GND*%
X-190670000Y36520000D03*
X-190670000Y31440000D03*
%TO.P,J2,2,Pin_2*%
%TO.N,USB_D+*%
X-193210000Y36520000D03*
X-193210000Y31440000D03*
%TO.P,J2,3,Pin_3*%
%TO.N,USB_D-*%
X-195750000Y36520000D03*
X-195750000Y31440000D03*
%TO.P,J2,4,Pin_4*%
%TO.N,USB_VBUS*%
X-198290000Y36520000D03*
X-198290000Y31440000D03*
%TD*%
D18*
%TO.P,J7,1,Pin_1*%
%TO.N,GND*%
X-132000000Y-26000000D03*
%TO.P,J7,2,Pin_2*%
%TO.N,CONN_LED_LOW_VOLTAGE*%
X-132000000Y-28000000D03*
%TO.P,J7,3,Pin_3*%
%TO.N,CONN_LED_CAUTION*%
X-130000000Y-26000000D03*
%TO.P,J7,4,Pin_4*%
%TO.N,CONN_LED_RS485_TX*%
X-130000000Y-28000000D03*
%TO.P,J7,5,Pin_5*%
%TO.N,CONN_LED_RS485_RX*%
X-128000000Y-26000000D03*
%TO.P,J7,6,Pin_6*%
%TO.N,CONN_LED_USB_RX*%
X-128000000Y-28000000D03*
%TO.P,J7,7,Pin_7*%
%TO.N,CONN_LED_USB_TX*%
X-126000000Y-26000000D03*
%TO.P,J7,8,Pin_8*%
%TO.N,CONN_LED_TASK*%
X-126000000Y-28000000D03*
%TO.P,J7,9,Pin_9*%
%TO.N,CONN_LED_COM*%
X-124000000Y-26000000D03*
%TO.P,J7,10,Pin_10*%
%TO.N,CONN_LED_5V*%
X-124000000Y-28000000D03*
%TO.P,J7,11,Pin_11*%
%TO.N,CONN_LED_12V*%
X-122000000Y-26000000D03*
%TO.P,J7,12,Pin_12*%
%TO.N,CONN_LED_INPUT*%
X-122000000Y-28000000D03*
%TO.P,J7,13,Pin_13*%
%TO.N,SW_RESET*%
X-120000000Y-26000000D03*
%TO.P,J7,14,Pin_14*%
%TO.N,LED_5V*%
X-120000000Y-28000000D03*
%TD*%
D19*
%TO.P,J11,1*%
%TO.N,GND*%
X-211600000Y940000D03*
D20*
%TO.P,J11,2*%
X-209060000Y-330000D03*
%TO.P,J11,3*%
X-211600000Y-1600000D03*
%TO.P,J11,4*%
%TO.N,Net-(U8-B)*%
X-209060000Y-2870000D03*
%TO.P,J11,5*%
%TO.N,Net-(U8-A)*%
X-211600000Y-4140000D03*
%TO.P,J11,6*%
%TO.N,GND*%
X-209060000Y-5410000D03*
%TO.P,J11,7*%
X-211600000Y-6680000D03*
%TO.P,J11,8*%
X-209060000Y-7950000D03*
D21*
%TO.P,J11,SH*%
X-205760000Y4395000D03*
X-205760000Y-11405000D03*
%TD*%
D14*
%TO.P,J6,1,Pin_1*%
%TO.N,GND*%
X139530000Y-54600000D03*
X147150000Y-54600000D03*
%TO.P,J6,2,Pin_2*%
%TO.N,FROM_CONVERTER*%
X139530000Y-49520000D03*
X147150000Y-49520000D03*
%TD*%
D22*
%TO.P,J3,6,Shield*%
%TO.N,GND*%
X-193775000Y20130000D03*
D23*
X-193625000Y23930000D03*
X-186175000Y23930000D03*
D22*
X-186025000Y20130000D03*
%TD*%
D24*
%TO.P,U6,1,VCC*%
%TO.N,LED_5V*%
X-216270000Y-15350000D03*
D25*
%TO.P,U6,2,RX*%
%TO.N,UART2_TX*%
X-216270000Y-17890000D03*
%TO.P,U6,3,TX*%
%TO.N,UART2_RX*%
X-216270000Y-20430000D03*
%TO.P,U6,4,DAC_R*%
%TO.N,unconnected-(U6-DAC_R-Pad4)*%
X-216270000Y-22970000D03*
%TO.P,U6,5,DAC_L*%
%TO.N,Net-(J10-Pin_2)*%
X-216270000Y-25510000D03*
%TO.P,U6,6,SPK2*%
%TO.N,Net-(J12-Pin_2)*%
X-216270000Y-28050000D03*
%TO.P,U6,7,GND*%
%TO.N,GND*%
X-216270000Y-30590000D03*
%TO.P,U6,8,SPK1*%
%TO.N,Net-(J12-Pin_1)*%
X-216270000Y-33130000D03*
%TO.P,U6,9,IO1*%
%TO.N,unconnected-(U6-IO1-Pad9)*%
X-198490000Y-15350000D03*
%TO.P,U6,10,GND*%
%TO.N,GND*%
X-198490000Y-17890000D03*
%TO.P,U6,11,IO2*%
%TO.N,unconnected-(U6-IO2-Pad11)*%
X-198490000Y-20430000D03*
%TO.P,U6,12,ADKEY1*%
%TO.N,unconnected-(U6-ADKEY1-Pad12)*%
X-198490000Y-22970000D03*
%TO.P,U6,13,ADKEY2*%
%TO.N,unconnected-(U6-ADKEY2-Pad13)*%
X-198490000Y-25510000D03*
%TO.P,U6,14,USB+*%
%TO.N,unconnected-(U6-USB+-Pad14)*%
X-198490000Y-28050000D03*
%TO.P,U6,15,USB-*%
%TO.N,unconnected-(U6-USB--Pad15)*%
X-198490000Y-30590000D03*
%TO.P,U6,16,BUSY*%
%TO.N,unconnected-(U6-BUSY-Pad16)*%
X-198490000Y-33130000D03*
%TD*%
D26*
%TO.P,SW1,1,1*%
%TO.N,GND*%
X-182400000Y14820000D03*
X-175900000Y14820000D03*
%TO.P,SW1,2,2*%
%TO.N,SW_RESET*%
X-182400000Y10320000D03*
X-175900000Y10320000D03*
%TD*%
D14*
%TO.P,J4,1,Pin_1*%
%TO.N,GND*%
X139530000Y-24600000D03*
X147150000Y-24600000D03*
%TO.P,J4,2,Pin_2*%
%TO.N,LED_INPUT*%
X139530000Y-19520000D03*
X147150000Y-19520000D03*
%TD*%
D27*
%TO.P,J1,1,Pin_1*%
%TO.N,SPI_MISO*%
X-197640000Y23620000D03*
D28*
%TO.P,J1,2,Pin_2*%
%TO.N,LED_5V*%
X-197640000Y21080000D03*
%TO.P,J1,3,Pin_3*%
%TO.N,SPI_SCK*%
X-197640000Y18540000D03*
%TO.P,J1,4,Pin_4*%
%TO.N,SPI_MOSI*%
X-197640000Y16000000D03*
%TO.P,J1,5,Pin_5*%
%TO.N,CTL_RESET*%
X-197640000Y13460000D03*
%TO.P,J1,6,Pin_6*%
%TO.N,GND*%
X-197640000Y10920000D03*
%TD*%
D10*
%TO.P,TP1,1,1*%
%TO.N,LED_INPUT*%
X-142500000Y46400000D03*
%TD*%
%TO.P,TP4,1,1*%
%TO.N,GND*%
X-142500000Y32750000D03*
%TD*%
D18*
%TO.P,J9,1,Pin_1*%
%TO.N,GND*%
X-132000000Y-12550000D03*
%TO.P,J9,2,Pin_2*%
%TO.N,SW_PURGE*%
X-132000000Y-14550000D03*
%TO.P,J9,3,Pin_3*%
%TO.N,SW_CLOSE*%
X-130000000Y-12550000D03*
%TO.P,J9,4,Pin_4*%
%TO.N,SW_OPEN*%
X-130000000Y-14550000D03*
%TO.P,J9,5,Pin_5*%
%TO.N,SW_IGNITOR*%
X-128000000Y-12550000D03*
%TO.P,J9,6,Pin_6*%
%TO.N,SW_O2*%
X-128000000Y-14550000D03*
%TO.P,J9,7,Pin_7*%
%TO.N,SW_DUMP*%
X-126000000Y-12550000D03*
%TO.P,J9,8,Pin_8*%
%TO.N,SW_FILL*%
X-126000000Y-14550000D03*
%TO.P,J9,9,Pin_9*%
%TO.N,SW_SHIFT*%
X-124000000Y-12550000D03*
%TO.P,J9,10,Pin_10*%
%TO.N,SW_CONFIRM_3*%
X-124000000Y-14550000D03*
%TO.P,J9,11,Pin_11*%
%TO.N,SW_CONFIRM_2*%
X-122000000Y-12550000D03*
%TO.P,J9,12,Pin_12*%
%TO.N,SW_CONFIRM_1*%
X-122000000Y-14550000D03*
%TO.P,J9,13,Pin_13*%
%TO.N,SW_EMERGENCY_STOP*%
X-120000000Y-12550000D03*
%TO.P,J9,14,Pin_14*%
%TO.N,SW_SEQUENCE_START*%
X-120000000Y-14550000D03*
%TO.P,J9,15,Pin_15*%
%TO.N,SW_SAFETY*%
X-118000000Y-12550000D03*
%TO.P,J9,16,Pin_16*%
%TO.N,SW_KILL*%
X-118000000Y-14550000D03*
%TO.P,J9,17,Pin_17*%
%TO.N,SW_RUN*%
X-116000000Y-12550000D03*
%TO.P,J9,18,Pin_18*%
%TO.N,LED_5V*%
X-116000000Y-14550000D03*
%TD*%
M02*
