%TF.GenerationSoftware,KiCad,Pcbnew,7.0.1*%
%TF.CreationDate,2023-09-18T22:16:33+09:00*%
%TF.ProjectId,LaunchController,4c61756e-6368-4436-9f6e-74726f6c6c65,rev?*%
%TF.SameCoordinates,Original*%
%TF.FileFunction,Copper,L1,Top*%
%TF.FilePolarity,Positive*%
%FSLAX46Y46*%
G04 Gerber Fmt 4.6, Leading zero omitted, Abs format (unit mm)*
G04 Created by KiCad (PCBNEW 7.0.1) date 2023-09-18 22:16:33*
%MOMM*%
%LPD*%
G01*
G04 APERTURE LIST*
G04 Aperture macros list*
%AMRoundRect*
0 Rectangle with rounded corners*
0 $1 Rounding radius*
0 $2 $3 $4 $5 $6 $7 $8 $9 X,Y pos of 4 corners*
0 Add a 4 corners polygon primitive as box body*
4,1,4,$2,$3,$4,$5,$6,$7,$8,$9,$2,$3,0*
0 Add four circle primitives for the rounded corners*
1,1,$1+$1,$2,$3*
1,1,$1+$1,$4,$5*
1,1,$1+$1,$6,$7*
1,1,$1+$1,$8,$9*
0 Add four rect primitives between the rounded corners*
20,1,$1+$1,$2,$3,$4,$5,0*
20,1,$1+$1,$4,$5,$6,$7,0*
20,1,$1+$1,$6,$7,$8,$9,0*
20,1,$1+$1,$8,$9,$2,$3,0*%
G04 Aperture macros list end*
%TA.AperFunction,SMDPad,CuDef*%
%ADD10RoundRect,0.237500X-0.300000X-0.237500X0.300000X-0.237500X0.300000X0.237500X-0.300000X0.237500X0*%
%TD*%
%TA.AperFunction,SMDPad,CuDef*%
%ADD11RoundRect,0.237500X-0.250000X-0.237500X0.250000X-0.237500X0.250000X0.237500X-0.250000X0.237500X0*%
%TD*%
%TA.AperFunction,ComponentPad*%
%ADD12C,2.500000*%
%TD*%
%TA.AperFunction,SMDPad,CuDef*%
%ADD13R,1.800000X0.800000*%
%TD*%
%TA.AperFunction,SMDPad,CuDef*%
%ADD14RoundRect,0.250000X-0.300000X-0.300000X0.300000X-0.300000X0.300000X0.300000X-0.300000X0.300000X0*%
%TD*%
%TA.AperFunction,ComponentPad*%
%ADD15R,1.600000X1.600000*%
%TD*%
%TA.AperFunction,ComponentPad*%
%ADD16O,1.600000X1.600000*%
%TD*%
%TA.AperFunction,ComponentPad*%
%ADD17C,1.800000*%
%TD*%
%TA.AperFunction,SMDPad,CuDef*%
%ADD18RoundRect,0.250001X-0.462499X-1.074999X0.462499X-1.074999X0.462499X1.074999X-0.462499X1.074999X0*%
%TD*%
%TA.AperFunction,SMDPad,CuDef*%
%ADD19RoundRect,0.237500X-0.287500X-0.237500X0.287500X-0.237500X0.287500X0.237500X-0.287500X0.237500X0*%
%TD*%
%TA.AperFunction,ComponentPad*%
%ADD20C,1.950000*%
%TD*%
%TA.AperFunction,ComponentPad*%
%ADD21C,1.500000*%
%TD*%
%TA.AperFunction,ComponentPad*%
%ADD22R,2.500000X1.500000*%
%TD*%
%TA.AperFunction,ComponentPad*%
%ADD23O,2.500000X1.500000*%
%TD*%
%TA.AperFunction,ComponentPad*%
%ADD24C,1.300000*%
%TD*%
%TA.AperFunction,SMDPad,CuDef*%
%ADD25RoundRect,0.250000X-1.500000X-0.650000X1.500000X-0.650000X1.500000X0.650000X-1.500000X0.650000X0*%
%TD*%
%TA.AperFunction,SMDPad,CuDef*%
%ADD26RoundRect,0.250000X-0.400000X-0.625000X0.400000X-0.625000X0.400000X0.625000X-0.400000X0.625000X0*%
%TD*%
%TA.AperFunction,SMDPad,CuDef*%
%ADD27RoundRect,0.125000X-0.537500X-0.125000X0.537500X-0.125000X0.537500X0.125000X-0.537500X0.125000X0*%
%TD*%
%TA.AperFunction,SMDPad,CuDef*%
%ADD28RoundRect,0.250000X-0.850000X-0.350000X0.850000X-0.350000X0.850000X0.350000X-0.850000X0.350000X0*%
%TD*%
%TA.AperFunction,SMDPad,CuDef*%
%ADD29RoundRect,0.250000X-1.275000X-1.125000X1.275000X-1.125000X1.275000X1.125000X-1.275000X1.125000X0*%
%TD*%
%TA.AperFunction,SMDPad,CuDef*%
%ADD30RoundRect,0.249997X-2.950003X-2.650003X2.950003X-2.650003X2.950003X2.650003X-2.950003X2.650003X0*%
%TD*%
%TA.AperFunction,SMDPad,CuDef*%
%ADD31RoundRect,0.250000X-1.350000X-1.975000X1.350000X-1.975000X1.350000X1.975000X-1.350000X1.975000X0*%
%TD*%
%TA.AperFunction,SMDPad,CuDef*%
%ADD32RoundRect,0.075000X0.415425X0.521491X-0.521491X-0.415425X-0.415425X-0.521491X0.521491X0.415425X0*%
%TD*%
%TA.AperFunction,SMDPad,CuDef*%
%ADD33RoundRect,0.075000X-0.415425X0.521491X-0.521491X0.415425X0.415425X-0.521491X0.521491X-0.415425X0*%
%TD*%
%TA.AperFunction,ComponentPad*%
%ADD34RoundRect,0.248000X0.552000X-0.552000X0.552000X0.552000X-0.552000X0.552000X-0.552000X-0.552000X0*%
%TD*%
%TA.AperFunction,ComponentPad*%
%ADD35C,1.600000*%
%TD*%
%TA.AperFunction,ComponentPad*%
%ADD36C,2.200000*%
%TD*%
%TA.AperFunction,SMDPad,CuDef*%
%ADD37R,0.450000X1.300000*%
%TD*%
%TA.AperFunction,ComponentPad*%
%ADD38O,1.150000X1.800000*%
%TD*%
%TA.AperFunction,ComponentPad*%
%ADD39O,1.450000X2.000000*%
%TD*%
%TA.AperFunction,SMDPad,CuDef*%
%ADD40RoundRect,0.250001X-0.462499X-0.624999X0.462499X-0.624999X0.462499X0.624999X-0.462499X0.624999X0*%
%TD*%
%TA.AperFunction,ComponentPad*%
%ADD41R,1.530000X1.530000*%
%TD*%
%TA.AperFunction,ComponentPad*%
%ADD42C,1.530000*%
%TD*%
%TA.AperFunction,SMDPad,CuDef*%
%ADD43R,1.750000X0.450000*%
%TD*%
%TA.AperFunction,ComponentPad*%
%ADD44C,2.000000*%
%TD*%
%TA.AperFunction,ComponentPad*%
%ADD45R,1.700000X1.700000*%
%TD*%
%TA.AperFunction,ComponentPad*%
%ADD46O,1.700000X1.700000*%
%TD*%
G04 APERTURE END LIST*
D10*
%TO.P,C9,1*%
%TO.N,GND*%
X-212652500Y24050000D03*
%TO.P,C9,2*%
%TO.N,Net-(U2-XTAL1)*%
X-210927500Y24050000D03*
%TD*%
D11*
%TO.P,R7,1*%
%TO.N,LED_5V*%
X-204002500Y26560000D03*
%TO.P,R7,2*%
%TO.N,I2C_SDA*%
X-202177500Y26560000D03*
%TD*%
D12*
%TO.P,TP2,1,1*%
%TO.N,LED_12V*%
X-142500000Y41850000D03*
%TD*%
D13*
%TO.P,Q3,1,B*%
%TO.N,Net-(Q3-B)*%
X-138550000Y28350000D03*
%TO.P,Q3,2,E*%
%TO.N,GND*%
X-138550000Y26450000D03*
%TO.P,Q3,3,C*%
%TO.N,SW_RUN*%
X-135250000Y27400000D03*
%TD*%
D11*
%TO.P,R42,1*%
%TO.N,LED_CAUTION*%
X-125962500Y29850000D03*
%TO.P,R42,2*%
%TO.N,Net-(D16-A)*%
X-124137500Y29850000D03*
%TD*%
D10*
%TO.P,C10,1*%
%TO.N,GND*%
X-212652500Y21540000D03*
%TO.P,C10,2*%
%TO.N,Net-(U2-XTAL2)*%
X-210927500Y21540000D03*
%TD*%
D11*
%TO.P,R58,1*%
%TO.N,SW_IGNITOR*%
X-166262500Y-28570000D03*
%TO.P,R58,2*%
%TO.N,Net-(R58-Pad2)*%
X-164437500Y-28570000D03*
%TD*%
%TO.P,R36,1*%
%TO.N,LED_TASK*%
X-125962500Y44910000D03*
%TO.P,R36,2*%
%TO.N,Net-(D11-A)*%
X-124137500Y44910000D03*
%TD*%
D14*
%TO.P,D6,1,K*%
%TO.N,GND*%
X-138855000Y40300000D03*
%TO.P,D6,2,A*%
%TO.N,Net-(D6-A)*%
X-136055000Y40300000D03*
%TD*%
D15*
%TO.P,U8,1,RO*%
%TO.N,UART1_RX*%
X-183970000Y-15380000D03*
D16*
%TO.P,U8,2,~{RE}*%
%TO.N,CTL_RS485_DERE*%
X-183970000Y-17920000D03*
%TO.P,U8,3,DE*%
X-183970000Y-20460000D03*
%TO.P,U8,4,DI*%
%TO.N,UART1_TX*%
X-183970000Y-23000000D03*
%TO.P,U8,5,GND*%
%TO.N,GND*%
X-176350000Y-23000000D03*
%TO.P,U8,6,A*%
%TO.N,Net-(U8-A)*%
X-176350000Y-20460000D03*
%TO.P,U8,7,B*%
%TO.N,Net-(U8-B)*%
X-176350000Y-17920000D03*
%TO.P,U8,8,VCC*%
%TO.N,LED_5V*%
X-176350000Y-15380000D03*
%TD*%
D11*
%TO.P,R3,1*%
%TO.N,Net-(U1-USBD-)*%
X-208352500Y24050000D03*
%TO.P,R3,2*%
%TO.N,USB_D-*%
X-206527500Y24050000D03*
%TD*%
D12*
%TO.P,TP3,1,1*%
%TO.N,LED_5V*%
X-142500000Y37300000D03*
%TD*%
D17*
%TO.P,J12,1,Pin_1*%
%TO.N,Net-(J12-Pin_1)*%
X-183040000Y-28630000D03*
X-183040000Y-33710000D03*
%TO.P,J12,2,Pin_2*%
%TO.N,Net-(J12-Pin_2)*%
X-185580000Y-28630000D03*
X-185580000Y-33710000D03*
%TD*%
D18*
%TO.P,L1,1,1*%
%TO.N,Net-(U2-AVCC)*%
X-193877500Y14600000D03*
%TO.P,L1,2,2*%
%TO.N,LED_5V*%
X-190902500Y14600000D03*
%TD*%
D11*
%TO.P,R23,1*%
%TO.N,GND*%
X-146962500Y20760000D03*
%TO.P,R23,2*%
%TO.N,VREF_VSW*%
X-145137500Y20760000D03*
%TD*%
D19*
%TO.P,D11,1,K*%
%TO.N,GND*%
X-117180000Y37020000D03*
%TO.P,D11,2,A*%
%TO.N,Net-(D11-A)*%
X-115430000Y37020000D03*
%TD*%
D11*
%TO.P,R53,1*%
%TO.N,SW_SAFETY*%
X-170612500Y-36100000D03*
%TO.P,R53,2*%
%TO.N,Net-(R53-Pad2)*%
X-168787500Y-36100000D03*
%TD*%
%TO.P,R5,1*%
%TO.N,Net-(U2-XTAL1)*%
X-208352500Y19030000D03*
%TO.P,R5,2*%
%TO.N,Net-(U2-XTAL2)*%
X-206527500Y19030000D03*
%TD*%
%TO.P,R62,1*%
%TO.N,SW_CLOSE*%
X-161912500Y-18530000D03*
%TO.P,R62,2*%
%TO.N,Net-(R62-Pad2)*%
X-160087500Y-18530000D03*
%TD*%
D19*
%TO.P,D17,1,K*%
%TO.N,GND*%
X-112785000Y37020000D03*
%TO.P,D17,2,A*%
%TO.N,Net-(D17-A)*%
X-111035000Y37020000D03*
%TD*%
D11*
%TO.P,R28,1*%
%TO.N,LED_INPUT*%
X-130312500Y44910000D03*
%TO.P,R28,2*%
%TO.N,Net-(D7-A)*%
X-128487500Y44910000D03*
%TD*%
D20*
%TO.P,J5,1,Pin_1*%
%TO.N,GND*%
X139530000Y-39600000D03*
X147150000Y-39600000D03*
%TO.P,J5,2,Pin_2*%
%TO.N,TO_CONVERTER*%
X139530000Y-34520000D03*
X147150000Y-34520000D03*
%TD*%
D11*
%TO.P,TH1,1*%
%TO.N,LED_5V*%
X-146962500Y13230000D03*
%TO.P,TH1,2*%
%TO.N,VREF_THERMISTOR*%
X-145137500Y13230000D03*
%TD*%
D10*
%TO.P,C12,1*%
%TO.N,LED_INPUT*%
X-155612500Y23270000D03*
%TO.P,C12,2*%
%TO.N,Net-(Q1-G)*%
X-153887500Y23270000D03*
%TD*%
D21*
%TO.P,Y1,1,1*%
%TO.N,Net-(U2-XTAL2)*%
X-214290000Y14450000D03*
%TO.P,Y1,2,2*%
%TO.N,Net-(U2-XTAL1)*%
X-209410000Y14450000D03*
%TD*%
D10*
%TO.P,C3,1*%
%TO.N,LED_5V*%
X-217002500Y24050000D03*
%TO.P,C3,2*%
%TO.N,GND*%
X-215277500Y24050000D03*
%TD*%
D11*
%TO.P,R45,1*%
%TO.N,CONN_LED_USB_TX*%
X-121612500Y42400000D03*
%TO.P,R45,2*%
%TO.N,LED_USB_TX*%
X-119787500Y42400000D03*
%TD*%
D19*
%TO.P,D7,1,K*%
%TO.N,GND*%
X-117180000Y47380000D03*
%TO.P,D7,2,A*%
%TO.N,Net-(D7-A)*%
X-115430000Y47380000D03*
%TD*%
D22*
%TO.P,C4,1*%
%TO.N,LED_5V*%
X-189690000Y46615000D03*
D23*
%TO.P,C4,2*%
%TO.N,GND*%
X-189690000Y41615000D03*
%TD*%
D11*
%TO.P,R33,1*%
%TO.N,LED_COM*%
X-130312500Y32360000D03*
%TO.P,R33,2*%
%TO.N,CONN_LED_COM*%
X-128487500Y32360000D03*
%TD*%
%TO.P,R19,1*%
%TO.N,VREF_VSW*%
X-151312500Y13230000D03*
%TO.P,R19,2*%
%TO.N,+VSW*%
X-149487500Y13230000D03*
%TD*%
D19*
%TO.P,D8,1,K*%
%TO.N,GND*%
X-117180000Y44790000D03*
%TO.P,D8,2,A*%
%TO.N,Net-(D8-A)*%
X-115430000Y44790000D03*
%TD*%
D17*
%TO.P,J10,1,Pin_1*%
%TO.N,GND*%
X-192230000Y-28630000D03*
X-192230000Y-33710000D03*
%TO.P,J10,2,Pin_2*%
%TO.N,Net-(J10-Pin_2)*%
X-194770000Y-28630000D03*
X-194770000Y-33710000D03*
%TD*%
D11*
%TO.P,R40,1*%
%TO.N,LED_RS485_RX*%
X-125962500Y34870000D03*
%TO.P,R40,2*%
%TO.N,Net-(D15-A)*%
X-124137500Y34870000D03*
%TD*%
%TO.P,R9,1*%
%TO.N,Net-(U2-PE0)*%
X-204002500Y21540000D03*
%TO.P,R9,2*%
%TO.N,UART0_RX*%
X-202177500Y21540000D03*
%TD*%
%TO.P,R1,1*%
%TO.N,LED_5V*%
X-208352500Y29070000D03*
%TO.P,R1,2*%
%TO.N,SW_RESET*%
X-206527500Y29070000D03*
%TD*%
%TO.P,R49,1*%
%TO.N,SW_RUN*%
X-170612500Y-26060000D03*
%TO.P,R49,2*%
%TO.N,Net-(R49-Pad2)*%
X-168787500Y-26060000D03*
%TD*%
%TO.P,R10,1*%
%TO.N,UART0_TX*%
X-204002500Y19030000D03*
%TO.P,R10,2*%
%TO.N,Net-(U2-PE1)*%
X-202177500Y19030000D03*
%TD*%
%TO.P,R32,1*%
%TO.N,LED_5V*%
X-130312500Y34870000D03*
%TO.P,R32,2*%
%TO.N,Net-(D9-A)*%
X-128487500Y34870000D03*
%TD*%
%TO.P,R39,1*%
%TO.N,LED_RS485_RX*%
X-125962500Y37380000D03*
%TO.P,R39,2*%
%TO.N,CONN_LED_RS485_RX*%
X-124137500Y37380000D03*
%TD*%
D24*
%TO.P,J8,1,Pin_1*%
%TO.N,GND*%
X-132000000Y900000D03*
%TO.P,J8,2,Pin_2*%
%TO.N,LED_FB_PURGE*%
X-132000000Y-1100000D03*
%TO.P,J8,3,Pin_3*%
%TO.N,LED_FB_CLOSE*%
X-130000000Y900000D03*
%TO.P,J8,4,Pin_4*%
%TO.N,LED_FB_OPEN*%
X-130000000Y-1100000D03*
%TO.P,J8,5,Pin_5*%
%TO.N,LED_FB_IGNITOR*%
X-128000000Y900000D03*
%TO.P,J8,6,Pin_6*%
%TO.N,LED_FB_O2*%
X-128000000Y-1100000D03*
%TO.P,J8,7,Pin_7*%
%TO.N,LED_FB_DUMP*%
X-126000000Y900000D03*
%TO.P,J8,8,Pin_8*%
%TO.N,LED_FB_FILL*%
X-126000000Y-1100000D03*
%TO.P,J8,9,Pin_9*%
%TO.N,LED_FB_SHIFT*%
X-124000000Y900000D03*
%TO.P,J8,10,Pin_10*%
%TO.N,LED_PURGE*%
X-124000000Y-1100000D03*
%TO.P,J8,11,Pin_11*%
%TO.N,LED_CLOSE*%
X-122000000Y900000D03*
%TO.P,J8,12,Pin_12*%
%TO.N,LED_OPEN*%
X-122000000Y-1100000D03*
%TO.P,J8,13,Pin_13*%
%TO.N,LED_IGNITOR*%
X-120000000Y900000D03*
%TO.P,J8,14,Pin_14*%
%TO.N,LED_O2*%
X-120000000Y-1100000D03*
%TO.P,J8,15,Pin_15*%
%TO.N,LED_DUMP*%
X-118000000Y900000D03*
%TO.P,J8,16,Pin_16*%
%TO.N,LED_FILL*%
X-118000000Y-1100000D03*
%TO.P,J8,17,Pin_17*%
%TO.N,LED_SHIFT*%
X-116000000Y900000D03*
%TO.P,J8,18,Pin_18*%
%TO.N,LED_EMERGENCY*%
X-116000000Y-1100000D03*
%TO.P,J8,19,Pin_19*%
%TO.N,LED_SEQUENCE*%
X-114000000Y900000D03*
%TO.P,J8,20,Pin_20*%
%TO.N,LED_SAFTEY*%
X-114000000Y-1100000D03*
%TO.P,J8,21,Pin_21*%
%TO.N,LED_POWER*%
X-112000000Y900000D03*
%TO.P,J8,22,Pin_22*%
%TO.N,LED_5V*%
X-112000000Y-1100000D03*
%TD*%
D11*
%TO.P,R65,1*%
%TO.N,SW_RESET*%
X-161912500Y-26060000D03*
%TO.P,R65,2*%
%TO.N,Net-(R65-Pad2)*%
X-160087500Y-26060000D03*
%TD*%
%TO.P,R2,1*%
%TO.N,USB_D+*%
X-208352500Y26560000D03*
%TO.P,R2,2*%
%TO.N,Net-(U1-USBD+)*%
X-206527500Y26560000D03*
%TD*%
D19*
%TO.P,D13,1,K*%
%TO.N,Net-(D13-K)*%
X-112785000Y47380000D03*
%TO.P,D13,2,A*%
%TO.N,LED_5V*%
X-111035000Y47380000D03*
%TD*%
D10*
%TO.P,C21,1*%
%TO.N,GND*%
X-170562500Y-23550000D03*
%TO.P,C21,2*%
%TO.N,LED_5V*%
X-168837500Y-23550000D03*
%TD*%
D15*
%TO.P,U9,1*%
%TO.N,Net-(R49-Pad2)*%
X-170250000Y50000D03*
D16*
%TO.P,U9,2*%
%TO.N,CTL_RUN*%
X-170250000Y-2490000D03*
%TO.P,U9,3*%
%TO.N,Net-(R51-Pad2)*%
X-170250000Y-5030000D03*
%TO.P,U9,4*%
%TO.N,CTL_KILL*%
X-170250000Y-7570000D03*
%TO.P,U9,5*%
%TO.N,Net-(R53-Pad2)*%
X-170250000Y-10110000D03*
%TO.P,U9,6*%
%TO.N,CTL_SAFETY*%
X-170250000Y-12650000D03*
%TO.P,U9,7,GND*%
%TO.N,GND*%
X-170250000Y-15190000D03*
%TO.P,U9,8*%
%TO.N,CTL_SEQUENCE_START*%
X-162630000Y-15190000D03*
%TO.P,U9,9*%
%TO.N,Net-(R55-Pad2)*%
X-162630000Y-12650000D03*
%TO.P,U9,10*%
%TO.N,CTL_EMERGENCY_STOP*%
X-162630000Y-10110000D03*
%TO.P,U9,11*%
%TO.N,Net-(R57-Pad2)*%
X-162630000Y-7570000D03*
%TO.P,U9,12*%
%TO.N,CTL_CONFIRM_1*%
X-162630000Y-5030000D03*
%TO.P,U9,13*%
%TO.N,Net-(R59-Pad2)*%
X-162630000Y-2490000D03*
%TO.P,U9,14,VCC*%
%TO.N,LED_5V*%
X-162630000Y50000D03*
%TD*%
D25*
%TO.P,D2,1,A1*%
%TO.N,GND*%
X-181855000Y23670000D03*
%TO.P,D2,2,A2*%
%TO.N,USB_D+*%
X-176855000Y23670000D03*
%TD*%
D15*
%TO.P,U11,1*%
%TO.N,Net-(R56-Pad2)*%
X-148550000Y50000D03*
D16*
%TO.P,U11,2*%
%TO.N,CTL_O2*%
X-148550000Y-2490000D03*
%TO.P,U11,3*%
%TO.N,Net-(R58-Pad2)*%
X-148550000Y-5030000D03*
%TO.P,U11,4*%
%TO.N,CTL_IGNITOR*%
X-148550000Y-7570000D03*
%TO.P,U11,5*%
%TO.N,Net-(R60-Pad2)*%
X-148550000Y-10110000D03*
%TO.P,U11,6*%
%TO.N,CTL_OPEN*%
X-148550000Y-12650000D03*
%TO.P,U11,7,GND*%
%TO.N,GND*%
X-148550000Y-15190000D03*
%TO.P,U11,8*%
%TO.N,CTL_CLOSE*%
X-140930000Y-15190000D03*
%TO.P,U11,9*%
%TO.N,Net-(R62-Pad2)*%
X-140930000Y-12650000D03*
%TO.P,U11,10*%
%TO.N,CTL_PURGE*%
X-140930000Y-10110000D03*
%TO.P,U11,11*%
%TO.N,Net-(R64-Pad2)*%
X-140930000Y-7570000D03*
%TO.P,U11,12*%
%TO.N,unconnected-(U11-Pad12)*%
X-140930000Y-5030000D03*
%TO.P,U11,13*%
%TO.N,Net-(R66-Pad2)*%
X-140930000Y-2490000D03*
%TO.P,U11,14,VCC*%
%TO.N,LED_5V*%
X-140930000Y50000D03*
%TD*%
D15*
%TO.P,U10,1*%
%TO.N,Net-(R61-Pad2)*%
X-159400000Y50000D03*
D16*
%TO.P,U10,2*%
%TO.N,CTL_CONFIRM_2*%
X-159400000Y-2490000D03*
%TO.P,U10,3*%
%TO.N,Net-(R63-Pad2)*%
X-159400000Y-5030000D03*
%TO.P,U10,4*%
%TO.N,CTL_CONFIRM_3*%
X-159400000Y-7570000D03*
%TO.P,U10,5*%
%TO.N,Net-(R65-Pad2)*%
X-159400000Y-10110000D03*
%TO.P,U10,6*%
%TO.N,CTL_RESET*%
X-159400000Y-12650000D03*
%TO.P,U10,7,GND*%
%TO.N,GND*%
X-159400000Y-15190000D03*
%TO.P,U10,8*%
%TO.N,CTL_SHIFT*%
X-151780000Y-15190000D03*
%TO.P,U10,9*%
%TO.N,Net-(R50-Pad2)*%
X-151780000Y-12650000D03*
%TO.P,U10,10*%
%TO.N,CTL_FILL*%
X-151780000Y-10110000D03*
%TO.P,U10,11*%
%TO.N,Net-(R52-Pad2)*%
X-151780000Y-7570000D03*
%TO.P,U10,12*%
%TO.N,CTL_DUMP*%
X-151780000Y-5030000D03*
%TO.P,U10,13*%
%TO.N,Net-(R54-Pad2)*%
X-151780000Y-2490000D03*
%TO.P,U10,14,VCC*%
%TO.N,LED_5V*%
X-151780000Y50000D03*
%TD*%
D11*
%TO.P,R14,1*%
%TO.N,CTL_POWER*%
X-151312500Y23270000D03*
%TO.P,R14,2*%
%TO.N,Net-(Q3-B)*%
X-149487500Y23270000D03*
%TD*%
%TO.P,R34,1*%
%TO.N,LED_COM*%
X-130312500Y29850000D03*
%TO.P,R34,2*%
%TO.N,Net-(D10-A)*%
X-128487500Y29850000D03*
%TD*%
%TO.P,R54,1*%
%TO.N,SW_DUMP*%
X-166262500Y-18530000D03*
%TO.P,R54,2*%
%TO.N,Net-(R54-Pad2)*%
X-164437500Y-18530000D03*
%TD*%
%TO.P,R51,1*%
%TO.N,SW_KILL*%
X-170612500Y-31080000D03*
%TO.P,R51,2*%
%TO.N,Net-(R51-Pad2)*%
X-168787500Y-31080000D03*
%TD*%
%TO.P,R59,1*%
%TO.N,SW_CONFIRM_1*%
X-166262500Y-31080000D03*
%TO.P,R59,2*%
%TO.N,Net-(R59-Pad2)*%
X-164437500Y-31080000D03*
%TD*%
D10*
%TO.P,C8,1*%
%TO.N,Net-(U1-DTR)*%
X-212652500Y26560000D03*
%TO.P,C8,2*%
%TO.N,CTL_RESET*%
X-210927500Y26560000D03*
%TD*%
D11*
%TO.P,R8,1*%
%TO.N,UART2_RX*%
X-204002500Y24050000D03*
%TO.P,R8,2*%
%TO.N,Net-(U2-PH0)*%
X-202177500Y24050000D03*
%TD*%
D25*
%TO.P,D3,1,A1*%
%TO.N,GND*%
X-181855000Y19120000D03*
%TO.P,D3,2,A2*%
%TO.N,USB_D-*%
X-176855000Y19120000D03*
%TD*%
D26*
%TO.P,R11,1*%
%TO.N,LED_INPUT*%
X-142450000Y10860000D03*
%TO.P,R11,2*%
%TO.N,Net-(Q1-G)*%
X-139350000Y10860000D03*
%TD*%
D11*
%TO.P,R50,1*%
%TO.N,SW_SHIFT*%
X-170612500Y-28570000D03*
%TO.P,R50,2*%
%TO.N,Net-(R50-Pad2)*%
X-168787500Y-28570000D03*
%TD*%
%TO.P,R26,1*%
%TO.N,Net-(U8-B)*%
X-217052500Y-36430000D03*
%TO.P,R26,2*%
%TO.N,Net-(U8-A)*%
X-215227500Y-36430000D03*
%TD*%
D10*
%TO.P,C1,1*%
%TO.N,LED_5V*%
X-217002500Y29070000D03*
%TO.P,C1,2*%
%TO.N,GND*%
X-215277500Y29070000D03*
%TD*%
D11*
%TO.P,R17,1*%
%TO.N,Net-(Q3-B)*%
X-151312500Y15740000D03*
%TO.P,R17,2*%
%TO.N,GND*%
X-149487500Y15740000D03*
%TD*%
%TO.P,R41,1*%
%TO.N,LED_CAUTION*%
X-125962500Y32360000D03*
%TO.P,R41,2*%
%TO.N,CONN_LED_CAUTION*%
X-124137500Y32360000D03*
%TD*%
%TO.P,R48,1*%
%TO.N,Net-(D13-K)*%
X-121612500Y34870000D03*
%TO.P,R48,2*%
%TO.N,LED_USB_RX*%
X-119787500Y34870000D03*
%TD*%
D27*
%TO.P,U5,1,IN+*%
%TO.N,FROM_CONVERTER*%
X-138787500Y32925000D03*
%TO.P,U5,2,IN-*%
%TO.N,LED_12V*%
X-138787500Y32275000D03*
%TO.P,U5,3,GND*%
%TO.N,GND*%
X-138787500Y31625000D03*
%TO.P,U5,4,VS*%
%TO.N,LED_5V*%
X-138787500Y30975000D03*
%TO.P,U5,5,SCL*%
%TO.N,I2C_SCL*%
X-136512500Y30975000D03*
%TO.P,U5,6,SDA*%
%TO.N,I2C_SDA*%
X-136512500Y31625000D03*
%TO.P,U5,7,A0*%
%TO.N,LED_5V*%
X-136512500Y32275000D03*
%TO.P,U5,8,A1*%
%TO.N,Net-(U5-A1)*%
X-136512500Y32925000D03*
%TD*%
D11*
%TO.P,R4,1*%
%TO.N,Net-(U1-DTR)*%
X-208352500Y21540000D03*
%TO.P,R4,2*%
%TO.N,GND*%
X-206527500Y21540000D03*
%TD*%
%TO.P,R64,1*%
%TO.N,SW_PURGE*%
X-161912500Y-23550000D03*
%TO.P,R64,2*%
%TO.N,Net-(R64-Pad2)*%
X-160087500Y-23550000D03*
%TD*%
D28*
%TO.P,Q1,1,G*%
%TO.N,Net-(Q1-G)*%
X-155050000Y46930000D03*
D29*
%TO.P,Q1,2,D*%
%TO.N,Net-(Q1-D)*%
X-150425000Y46175000D03*
X-150425000Y43125000D03*
D30*
X-148750000Y44650000D03*
D29*
X-147075000Y46175000D03*
X-147075000Y43125000D03*
D28*
%TO.P,Q1,3,S*%
%TO.N,LED_INPUT*%
X-155050000Y42370000D03*
%TD*%
D11*
%TO.P,R15,1*%
%TO.N,Net-(U4-A0)*%
X-151312500Y20760000D03*
%TO.P,R15,2*%
%TO.N,GND*%
X-149487500Y20760000D03*
%TD*%
%TO.P,R16,1*%
%TO.N,GND*%
X-151312500Y18250000D03*
%TO.P,R16,2*%
%TO.N,Net-(U4-A1)*%
X-149487500Y18250000D03*
%TD*%
D10*
%TO.P,C7,1*%
%TO.N,Net-(U2-AVCC)*%
X-212652500Y29070000D03*
%TO.P,C7,2*%
%TO.N,GND*%
X-210927500Y29070000D03*
%TD*%
D15*
%TO.P,U7,1,A0*%
%TO.N,GND*%
X-194820000Y-15380000D03*
D16*
%TO.P,U7,2,A1*%
X-194820000Y-17920000D03*
%TO.P,U7,3,A2*%
X-194820000Y-20460000D03*
%TO.P,U7,4,GND*%
X-194820000Y-23000000D03*
%TO.P,U7,5,SDA*%
%TO.N,I2C_SDA*%
X-187200000Y-23000000D03*
%TO.P,U7,6,SCL*%
%TO.N,I2C_SCL*%
X-187200000Y-20460000D03*
%TO.P,U7,7,WP*%
%TO.N,GND*%
X-187200000Y-17920000D03*
%TO.P,U7,8,VCC*%
%TO.N,LED_5V*%
X-187200000Y-15380000D03*
%TD*%
D10*
%TO.P,C14,1*%
%TO.N,Net-(D6-A)*%
X-155612500Y18250000D03*
%TO.P,C14,2*%
%TO.N,LED_12V*%
X-153887500Y18250000D03*
%TD*%
D17*
%TO.P,J2,1,Pin_1*%
%TO.N,GND*%
X-190670000Y36520000D03*
X-190670000Y31440000D03*
%TO.P,J2,2,Pin_2*%
%TO.N,USB_D+*%
X-193210000Y36520000D03*
X-193210000Y31440000D03*
%TO.P,J2,3,Pin_3*%
%TO.N,USB_D-*%
X-195750000Y36520000D03*
X-195750000Y31440000D03*
%TO.P,J2,4,Pin_4*%
%TO.N,USB_VBUS*%
X-198290000Y36520000D03*
X-198290000Y31440000D03*
%TD*%
D19*
%TO.P,D10,1,K*%
%TO.N,GND*%
X-117180000Y39610000D03*
%TO.P,D10,2,A*%
%TO.N,Net-(D10-A)*%
X-115430000Y39610000D03*
%TD*%
D11*
%TO.P,R6,1*%
%TO.N,LED_5V*%
X-204002500Y29070000D03*
%TO.P,R6,2*%
%TO.N,I2C_SCL*%
X-202177500Y29070000D03*
%TD*%
D14*
%TO.P,D4,1,K*%
%TO.N,LED_12V*%
X-138855000Y47000000D03*
%TO.P,D4,2,A*%
%TO.N,Net-(D4-A)*%
X-136055000Y47000000D03*
%TD*%
D27*
%TO.P,U4,1,IN+*%
%TO.N,+VSW*%
X-138787500Y37375000D03*
%TO.P,U4,2,IN-*%
%TO.N,TO_CONVERTER*%
X-138787500Y36725000D03*
%TO.P,U4,3,GND*%
%TO.N,GND*%
X-138787500Y36075000D03*
%TO.P,U4,4,VS*%
%TO.N,LED_5V*%
X-138787500Y35425000D03*
%TO.P,U4,5,SCL*%
%TO.N,I2C_SCL*%
X-136512500Y35425000D03*
%TO.P,U4,6,SDA*%
%TO.N,I2C_SDA*%
X-136512500Y36075000D03*
%TO.P,U4,7,A0*%
%TO.N,Net-(U4-A0)*%
X-136512500Y36725000D03*
%TO.P,U4,8,A1*%
%TO.N,Net-(U4-A1)*%
X-136512500Y37375000D03*
%TD*%
D11*
%TO.P,R66,1*%
%TO.N,GND*%
X-161912500Y-28570000D03*
%TO.P,R66,2*%
%TO.N,Net-(R66-Pad2)*%
X-160087500Y-28570000D03*
%TD*%
D31*
%TO.P,R18,1*%
%TO.N,LED_12V*%
X-141500000Y15510000D03*
%TO.P,R18,2*%
%TO.N,FROM_CONVERTER*%
X-136300000Y15510000D03*
%TD*%
D11*
%TO.P,R47,1*%
%TO.N,CONN_LED_USB_RX*%
X-121612500Y37380000D03*
%TO.P,R47,2*%
%TO.N,LED_USB_RX*%
X-119787500Y37380000D03*
%TD*%
D32*
%TO.P,U2,1,PG5*%
%TO.N,unconnected-(U2-PG5-Pad1)*%
X84660846Y-48824435D03*
%TO.P,U2,2,PE0*%
%TO.N,Net-(U2-PE0)*%
X84307293Y-48470882D03*
%TO.P,U2,3,PE1*%
%TO.N,Net-(U2-PE1)*%
X83953740Y-48117328D03*
%TO.P,U2,4,PE2*%
%TO.N,unconnected-(U2-PE2-Pad4)*%
X83600186Y-47763775D03*
%TO.P,U2,5,PE3*%
%TO.N,unconnected-(U2-PE3-Pad5)*%
X83246633Y-47410221D03*
%TO.P,U2,6,PE4*%
%TO.N,unconnected-(U2-PE4-Pad6)*%
X82893079Y-47056668D03*
%TO.P,U2,7,PE5*%
%TO.N,unconnected-(U2-PE5-Pad7)*%
X82539526Y-46703115D03*
%TO.P,U2,8,PE6*%
%TO.N,unconnected-(U2-PE6-Pad8)*%
X82185973Y-46349561D03*
%TO.P,U2,9,PE7*%
%TO.N,unconnected-(U2-PE7-Pad9)*%
X81832419Y-45996008D03*
%TO.P,U2,10,VCC*%
%TO.N,LED_5V*%
X81478866Y-45642454D03*
%TO.P,U2,11,GND*%
%TO.N,GND*%
X81125312Y-45288901D03*
%TO.P,U2,12,PH0*%
%TO.N,Net-(U2-PH0)*%
X80771759Y-44935348D03*
%TO.P,U2,13,PH1*%
%TO.N,UART2_TX*%
X80418206Y-44581794D03*
%TO.P,U2,14,PH2*%
%TO.N,unconnected-(U2-PH2-Pad14)*%
X80064652Y-44228241D03*
%TO.P,U2,15,PH3*%
%TO.N,unconnected-(U2-PH3-Pad15)*%
X79711099Y-43874688D03*
%TO.P,U2,16,PH4*%
%TO.N,unconnected-(U2-PH4-Pad16)*%
X79357546Y-43521134D03*
%TO.P,U2,17,PH5*%
%TO.N,unconnected-(U2-PH5-Pad17)*%
X79003992Y-43167581D03*
%TO.P,U2,18,PH6*%
%TO.N,unconnected-(U2-PH6-Pad18)*%
X78650439Y-42814027D03*
%TO.P,U2,19,PB0*%
%TO.N,unconnected-(U2-PB0-Pad19)*%
X78296885Y-42460474D03*
%TO.P,U2,20,PB1*%
%TO.N,SPI_SCK*%
X77943332Y-42106921D03*
%TO.P,U2,21,PB2*%
%TO.N,SPI_MOSI*%
X77589779Y-41753367D03*
%TO.P,U2,22,PB3*%
%TO.N,SPI_MISO*%
X77236225Y-41399814D03*
%TO.P,U2,23,PB4*%
%TO.N,unconnected-(U2-PB4-Pad23)*%
X76882672Y-41046260D03*
%TO.P,U2,24,PB5*%
%TO.N,unconnected-(U2-PB5-Pad24)*%
X76529118Y-40692707D03*
%TO.P,U2,25,PB6*%
%TO.N,unconnected-(U2-PB6-Pad25)*%
X76175565Y-40339154D03*
D33*
%TO.P,U2,26,PB7*%
%TO.N,unconnected-(U2-PB7-Pad26)*%
X73824435Y-40339154D03*
%TO.P,U2,27,PH7*%
%TO.N,unconnected-(U2-PH7-Pad27)*%
X73470882Y-40692707D03*
%TO.P,U2,28,PG3*%
%TO.N,unconnected-(U2-PG3-Pad28)*%
X73117328Y-41046260D03*
%TO.P,U2,29,PG4*%
%TO.N,unconnected-(U2-PG4-Pad29)*%
X72763775Y-41399814D03*
%TO.P,U2,30,~{RESET}*%
%TO.N,SW_RESET*%
X72410221Y-41753367D03*
%TO.P,U2,31,VCC*%
%TO.N,LED_5V*%
X72056668Y-42106921D03*
%TO.P,U2,32,GND*%
%TO.N,GND*%
X71703115Y-42460474D03*
%TO.P,U2,33,XTAL2*%
%TO.N,Net-(U2-XTAL2)*%
X71349561Y-42814027D03*
%TO.P,U2,34,XTAL1*%
%TO.N,Net-(U2-XTAL1)*%
X70996008Y-43167581D03*
%TO.P,U2,35,PL0*%
%TO.N,unconnected-(U2-PL0-Pad35)*%
X70642454Y-43521134D03*
%TO.P,U2,36,PL1*%
%TO.N,unconnected-(U2-PL1-Pad36)*%
X70288901Y-43874688D03*
%TO.P,U2,37,PL2*%
%TO.N,unconnected-(U2-PL2-Pad37)*%
X69935348Y-44228241D03*
%TO.P,U2,38,PL3*%
%TO.N,unconnected-(U2-PL3-Pad38)*%
X69581794Y-44581794D03*
%TO.P,U2,39,PL4*%
%TO.N,unconnected-(U2-PL4-Pad39)*%
X69228241Y-44935348D03*
%TO.P,U2,40,PL5*%
%TO.N,unconnected-(U2-PL5-Pad40)*%
X68874688Y-45288901D03*
%TO.P,U2,41,PL6*%
%TO.N,unconnected-(U2-PL6-Pad41)*%
X68521134Y-45642454D03*
%TO.P,U2,42,PL7*%
%TO.N,unconnected-(U2-PL7-Pad42)*%
X68167581Y-45996008D03*
%TO.P,U2,43,PD0*%
%TO.N,I2C_SCL*%
X67814027Y-46349561D03*
%TO.P,U2,44,PD1*%
%TO.N,I2C_SDA*%
X67460474Y-46703115D03*
%TO.P,U2,45,PD2*%
%TO.N,UART1_RX*%
X67106921Y-47056668D03*
%TO.P,U2,46,PD3*%
%TO.N,UART1_TX*%
X66753367Y-47410221D03*
%TO.P,U2,47,PD4*%
%TO.N,unconnected-(U2-PD4-Pad47)*%
X66399814Y-47763775D03*
%TO.P,U2,48,PD5*%
%TO.N,unconnected-(U2-PD5-Pad48)*%
X66046260Y-48117328D03*
%TO.P,U2,49,PD6*%
%TO.N,unconnected-(U2-PD6-Pad49)*%
X65692707Y-48470882D03*
%TO.P,U2,50,PD7*%
%TO.N,unconnected-(U2-PD7-Pad50)*%
X65339154Y-48824435D03*
D32*
%TO.P,U2,51,PG0*%
%TO.N,unconnected-(U2-PG0-Pad51)*%
X65339154Y-51175565D03*
%TO.P,U2,52,PG1*%
%TO.N,unconnected-(U2-PG1-Pad52)*%
X65692707Y-51529118D03*
%TO.P,U2,53,PC0*%
%TO.N,unconnected-(U2-PC0-Pad53)*%
X66046260Y-51882672D03*
%TO.P,U2,54,PC1*%
%TO.N,unconnected-(U2-PC1-Pad54)*%
X66399814Y-52236225D03*
%TO.P,U2,55,PC2*%
%TO.N,unconnected-(U2-PC2-Pad55)*%
X66753367Y-52589779D03*
%TO.P,U2,56,PC3*%
%TO.N,unconnected-(U2-PC3-Pad56)*%
X67106921Y-52943332D03*
%TO.P,U2,57,PC4*%
%TO.N,unconnected-(U2-PC4-Pad57)*%
X67460474Y-53296885D03*
%TO.P,U2,58,PC5*%
%TO.N,unconnected-(U2-PC5-Pad58)*%
X67814027Y-53650439D03*
%TO.P,U2,59,PC6*%
%TO.N,unconnected-(U2-PC6-Pad59)*%
X68167581Y-54003992D03*
%TO.P,U2,60,PC7*%
%TO.N,unconnected-(U2-PC7-Pad60)*%
X68521134Y-54357546D03*
%TO.P,U2,61,VCC*%
%TO.N,LED_5V*%
X68874688Y-54711099D03*
%TO.P,U2,62,GND*%
%TO.N,GND*%
X69228241Y-55064652D03*
%TO.P,U2,63,PJ0*%
%TO.N,unconnected-(U2-PJ0-Pad63)*%
X69581794Y-55418206D03*
%TO.P,U2,64,PJ1*%
%TO.N,unconnected-(U2-PJ1-Pad64)*%
X69935348Y-55771759D03*
%TO.P,U2,65,PJ2*%
%TO.N,unconnected-(U2-PJ2-Pad65)*%
X70288901Y-56125312D03*
%TO.P,U2,66,PJ3*%
%TO.N,unconnected-(U2-PJ3-Pad66)*%
X70642454Y-56478866D03*
%TO.P,U2,67,PJ4*%
%TO.N,unconnected-(U2-PJ4-Pad67)*%
X70996008Y-56832419D03*
%TO.P,U2,68,PJ5*%
%TO.N,unconnected-(U2-PJ5-Pad68)*%
X71349561Y-57185973D03*
%TO.P,U2,69,PJ6*%
%TO.N,unconnected-(U2-PJ6-Pad69)*%
X71703115Y-57539526D03*
%TO.P,U2,70,PG2*%
%TO.N,unconnected-(U2-PG2-Pad70)*%
X72056668Y-57893079D03*
%TO.P,U2,71,PA7*%
%TO.N,unconnected-(U2-PA7-Pad71)*%
X72410221Y-58246633D03*
%TO.P,U2,72,PA6*%
%TO.N,unconnected-(U2-PA6-Pad72)*%
X72763775Y-58600186D03*
%TO.P,U2,73,PA5*%
%TO.N,unconnected-(U2-PA5-Pad73)*%
X73117328Y-58953740D03*
%TO.P,U2,74,PA4*%
%TO.N,unconnected-(U2-PA4-Pad74)*%
X73470882Y-59307293D03*
%TO.P,U2,75,PA3*%
%TO.N,unconnected-(U2-PA3-Pad75)*%
X73824435Y-59660846D03*
D33*
%TO.P,U2,76,PA2*%
%TO.N,unconnected-(U2-PA2-Pad76)*%
X76175565Y-59660846D03*
%TO.P,U2,77,PA1*%
%TO.N,unconnected-(U2-PA1-Pad77)*%
X76529118Y-59307293D03*
%TO.P,U2,78,PA0*%
%TO.N,unconnected-(U2-PA0-Pad78)*%
X76882672Y-58953740D03*
%TO.P,U2,79,PJ7*%
%TO.N,unconnected-(U2-PJ7-Pad79)*%
X77236225Y-58600186D03*
%TO.P,U2,80,VCC*%
%TO.N,LED_5V*%
X77589779Y-58246633D03*
%TO.P,U2,81,GND*%
%TO.N,GND*%
X77943332Y-57893079D03*
%TO.P,U2,82,PK7*%
%TO.N,unconnected-(U2-PK7-Pad82)*%
X78296885Y-57539526D03*
%TO.P,U2,83,PK6*%
%TO.N,unconnected-(U2-PK6-Pad83)*%
X78650439Y-57185973D03*
%TO.P,U2,84,PK5*%
%TO.N,unconnected-(U2-PK5-Pad84)*%
X79003992Y-56832419D03*
%TO.P,U2,85,PK4*%
%TO.N,unconnected-(U2-PK4-Pad85)*%
X79357546Y-56478866D03*
%TO.P,U2,86,PK3*%
%TO.N,unconnected-(U2-PK3-Pad86)*%
X79711099Y-56125312D03*
%TO.P,U2,87,PK2*%
%TO.N,unconnected-(U2-PK2-Pad87)*%
X80064652Y-55771759D03*
%TO.P,U2,88,PK1*%
%TO.N,unconnected-(U2-PK1-Pad88)*%
X80418206Y-55418206D03*
%TO.P,U2,89,PK0*%
%TO.N,unconnected-(U2-PK0-Pad89)*%
X80771759Y-55064652D03*
%TO.P,U2,90,PF7*%
%TO.N,unconnected-(U2-PF7-Pad90)*%
X81125312Y-54711099D03*
%TO.P,U2,91,PF6*%
%TO.N,unconnected-(U2-PF6-Pad91)*%
X81478866Y-54357546D03*
%TO.P,U2,92,PF5*%
%TO.N,unconnected-(U2-PF5-Pad92)*%
X81832419Y-54003992D03*
%TO.P,U2,93,PF4*%
%TO.N,VREF_THERMISTOR*%
X82185973Y-53650439D03*
%TO.P,U2,94,PF3*%
%TO.N,VREF_12V*%
X82539526Y-53296885D03*
%TO.P,U2,95,PF2*%
%TO.N,VREF_VSW*%
X82893079Y-52943332D03*
%TO.P,U2,96,PF1*%
%TO.N,unconnected-(U2-PF1-Pad96)*%
X83246633Y-52589779D03*
%TO.P,U2,97,PF0*%
%TO.N,unconnected-(U2-PF0-Pad97)*%
X83600186Y-52236225D03*
%TO.P,U2,98,AREF*%
%TO.N,Net-(U2-AREF)*%
X83953740Y-51882672D03*
%TO.P,U2,99,GND*%
%TO.N,GND*%
X84307293Y-51529118D03*
%TO.P,U2,100,AVCC*%
%TO.N,Net-(U2-AVCC)*%
X84660846Y-51175565D03*
%TD*%
D10*
%TO.P,C5,1*%
%TO.N,GND*%
X-217002500Y21540000D03*
%TO.P,C5,2*%
%TO.N,LED_5V*%
X-215277500Y21540000D03*
%TD*%
D19*
%TO.P,D9,1,K*%
%TO.N,GND*%
X-117180000Y42200000D03*
%TO.P,D9,2,A*%
%TO.N,Net-(D9-A)*%
X-115430000Y42200000D03*
%TD*%
D24*
%TO.P,J7,1,Pin_1*%
%TO.N,GND*%
X-132000000Y-26000000D03*
%TO.P,J7,2,Pin_2*%
%TO.N,CONN_LED_LOW_VOLTAGE*%
X-132000000Y-28000000D03*
%TO.P,J7,3,Pin_3*%
%TO.N,CONN_LED_CAUTION*%
X-130000000Y-26000000D03*
%TO.P,J7,4,Pin_4*%
%TO.N,CONN_LED_RS485_TX*%
X-130000000Y-28000000D03*
%TO.P,J7,5,Pin_5*%
%TO.N,CONN_LED_RS485_RX*%
X-128000000Y-26000000D03*
%TO.P,J7,6,Pin_6*%
%TO.N,CONN_LED_USB_RX*%
X-128000000Y-28000000D03*
%TO.P,J7,7,Pin_7*%
%TO.N,CONN_LED_USB_TX*%
X-126000000Y-26000000D03*
%TO.P,J7,8,Pin_8*%
%TO.N,CONN_LED_TASK*%
X-126000000Y-28000000D03*
%TO.P,J7,9,Pin_9*%
%TO.N,CONN_LED_COM*%
X-124000000Y-26000000D03*
%TO.P,J7,10,Pin_10*%
%TO.N,CONN_LED_5V*%
X-124000000Y-28000000D03*
%TO.P,J7,11,Pin_11*%
%TO.N,CONN_LED_12V*%
X-122000000Y-26000000D03*
%TO.P,J7,12,Pin_12*%
%TO.N,CONN_LED_INPUT*%
X-122000000Y-28000000D03*
%TO.P,J7,13,Pin_13*%
%TO.N,SW_RESET*%
X-120000000Y-26000000D03*
%TO.P,J7,14,Pin_14*%
%TO.N,LED_5V*%
X-120000000Y-28000000D03*
%TD*%
D34*
%TO.P,J11,1*%
%TO.N,GND*%
X-211600000Y940000D03*
D35*
%TO.P,J11,2*%
X-209060000Y-330000D03*
%TO.P,J11,3*%
X-211600000Y-1600000D03*
%TO.P,J11,4*%
%TO.N,Net-(U8-B)*%
X-209060000Y-2870000D03*
%TO.P,J11,5*%
%TO.N,Net-(U8-A)*%
X-211600000Y-4140000D03*
%TO.P,J11,6*%
%TO.N,GND*%
X-209060000Y-5410000D03*
%TO.P,J11,7*%
X-211600000Y-6680000D03*
%TO.P,J11,8*%
X-209060000Y-7950000D03*
D36*
%TO.P,J11,SH*%
X-205760000Y4395000D03*
X-205760000Y-11405000D03*
%TD*%
D19*
%TO.P,D16,1,K*%
%TO.N,GND*%
X-112785000Y39610000D03*
%TO.P,D16,2,A*%
%TO.N,Net-(D16-A)*%
X-111035000Y39610000D03*
%TD*%
D28*
%TO.P,U3,1,IN*%
%TO.N,LED_12V*%
X-155050000Y30830000D03*
D29*
%TO.P,U3,2,GND*%
%TO.N,Net-(D6-A)*%
X-150425000Y30075000D03*
X-150425000Y27025000D03*
D30*
X-148750000Y28550000D03*
D29*
X-147075000Y30075000D03*
X-147075000Y27025000D03*
D28*
%TO.P,U3,3,OUT*%
%TO.N,Net-(D4-A)*%
X-155050000Y26270000D03*
%TD*%
D11*
%TO.P,R30,1*%
%TO.N,LED_12V*%
X-130312500Y39890000D03*
%TO.P,R30,2*%
%TO.N,Net-(D8-A)*%
X-128487500Y39890000D03*
%TD*%
D20*
%TO.P,J6,1,Pin_1*%
%TO.N,GND*%
X139530000Y-54600000D03*
X147150000Y-54600000D03*
%TO.P,J6,2,Pin_2*%
%TO.N,FROM_CONVERTER*%
X139530000Y-49520000D03*
X147150000Y-49520000D03*
%TD*%
D19*
%TO.P,D12,1,K*%
%TO.N,Net-(D12-K)*%
X-117180000Y34430000D03*
%TO.P,D12,2,A*%
%TO.N,LED_5V*%
X-115430000Y34430000D03*
%TD*%
D11*
%TO.P,R60,1*%
%TO.N,SW_OPEN*%
X-166262500Y-33590000D03*
%TO.P,R60,2*%
%TO.N,Net-(R60-Pad2)*%
X-164437500Y-33590000D03*
%TD*%
D31*
%TO.P,R13,1*%
%TO.N,TO_CONVERTER*%
X-141500000Y21520000D03*
%TO.P,R13,2*%
%TO.N,+VSW*%
X-136300000Y21520000D03*
%TD*%
D19*
%TO.P,D14,1,K*%
%TO.N,GND*%
X-112785000Y44790000D03*
%TO.P,D14,2,A*%
%TO.N,Net-(D14-A)*%
X-111035000Y44790000D03*
%TD*%
D37*
%TO.P,J3,1,VBUS*%
%TO.N,USB_VBUS*%
X-191200000Y23980000D03*
%TO.P,J3,2,D-*%
%TO.N,USB_D-*%
X-190550000Y23980000D03*
%TO.P,J3,3,D+*%
%TO.N,USB_D+*%
X-189900000Y23980000D03*
%TO.P,J3,4,ID*%
%TO.N,unconnected-(J3-ID-Pad4)*%
X-189250000Y23980000D03*
%TO.P,J3,5,GND*%
%TO.N,GND*%
X-188600000Y23980000D03*
D38*
%TO.P,J3,6,Shield*%
X-193775000Y20130000D03*
D39*
X-193625000Y23930000D03*
X-186175000Y23930000D03*
D38*
X-186025000Y20130000D03*
%TD*%
D11*
%TO.P,R29,1*%
%TO.N,LED_12V*%
X-130312500Y42400000D03*
%TO.P,R29,2*%
%TO.N,CONN_LED_12V*%
X-128487500Y42400000D03*
%TD*%
D14*
%TO.P,D1,1,K*%
%TO.N,LED_5V*%
X-178045000Y47000000D03*
%TO.P,D1,2,A*%
%TO.N,SW_RESET*%
X-175245000Y47000000D03*
%TD*%
D11*
%TO.P,R55,1*%
%TO.N,SW_SEQUENCE_START*%
X-166262500Y-21040000D03*
%TO.P,R55,2*%
%TO.N,Net-(R55-Pad2)*%
X-164437500Y-21040000D03*
%TD*%
D10*
%TO.P,C16,1*%
%TO.N,Net-(D6-A)*%
X-155612500Y13230000D03*
%TO.P,C16,2*%
%TO.N,Net-(D4-A)*%
X-153887500Y13230000D03*
%TD*%
D11*
%TO.P,R27,1*%
%TO.N,LED_INPUT*%
X-130312500Y47420000D03*
%TO.P,R27,2*%
%TO.N,CONN_LED_INPUT*%
X-128487500Y47420000D03*
%TD*%
D40*
%TO.P,F1,1*%
%TO.N,USB_VBUS*%
X-193877500Y10850000D03*
%TO.P,F1,2*%
%TO.N,LED_5V*%
X-190902500Y10850000D03*
%TD*%
D11*
%TO.P,R56,1*%
%TO.N,SW_O2*%
X-166262500Y-23550000D03*
%TO.P,R56,2*%
%TO.N,Net-(R56-Pad2)*%
X-164437500Y-23550000D03*
%TD*%
%TO.P,R37,1*%
%TO.N,LED_RS485_TX*%
X-125962500Y42400000D03*
%TO.P,R37,2*%
%TO.N,CONN_LED_RS485_TX*%
X-124137500Y42400000D03*
%TD*%
%TO.P,R38,1*%
%TO.N,LED_RS485_TX*%
X-125962500Y39890000D03*
%TO.P,R38,2*%
%TO.N,Net-(D14-A)*%
X-124137500Y39890000D03*
%TD*%
D41*
%TO.P,U6,1,VCC*%
%TO.N,LED_5V*%
X-216270000Y-15350000D03*
D42*
%TO.P,U6,2,RX*%
%TO.N,UART2_TX*%
X-216270000Y-17890000D03*
%TO.P,U6,3,TX*%
%TO.N,UART2_RX*%
X-216270000Y-20430000D03*
%TO.P,U6,4,DAC_R*%
%TO.N,unconnected-(U6-DAC_R-Pad4)*%
X-216270000Y-22970000D03*
%TO.P,U6,5,DAC_L*%
%TO.N,Net-(J10-Pin_2)*%
X-216270000Y-25510000D03*
%TO.P,U6,6,SPK2*%
%TO.N,Net-(J12-Pin_2)*%
X-216270000Y-28050000D03*
%TO.P,U6,7,GND*%
%TO.N,GND*%
X-216270000Y-30590000D03*
%TO.P,U6,8,SPK1*%
%TO.N,Net-(J12-Pin_1)*%
X-216270000Y-33130000D03*
%TO.P,U6,9,IO1*%
%TO.N,unconnected-(U6-IO1-Pad9)*%
X-198490000Y-15350000D03*
%TO.P,U6,10,GND*%
%TO.N,GND*%
X-198490000Y-17890000D03*
%TO.P,U6,11,IO2*%
%TO.N,unconnected-(U6-IO2-Pad11)*%
X-198490000Y-20430000D03*
%TO.P,U6,12,ADKEY1*%
%TO.N,unconnected-(U6-ADKEY1-Pad12)*%
X-198490000Y-22970000D03*
%TO.P,U6,13,ADKEY2*%
%TO.N,unconnected-(U6-ADKEY2-Pad13)*%
X-198490000Y-25510000D03*
%TO.P,U6,14,USB+*%
%TO.N,unconnected-(U6-USB+-Pad14)*%
X-198490000Y-28050000D03*
%TO.P,U6,15,USB-*%
%TO.N,unconnected-(U6-USB--Pad15)*%
X-198490000Y-30590000D03*
%TO.P,U6,16,BUSY*%
%TO.N,unconnected-(U6-BUSY-Pad16)*%
X-198490000Y-33130000D03*
%TD*%
D11*
%TO.P,R61,1*%
%TO.N,SW_CONFIRM_2*%
X-166262500Y-36100000D03*
%TO.P,R61,2*%
%TO.N,Net-(R61-Pad2)*%
X-164437500Y-36100000D03*
%TD*%
D43*
%TO.P,U1,1,TXD*%
%TO.N,UART0_RX*%
X-184020000Y38295000D03*
%TO.P,U1,2,DTR*%
%TO.N,Net-(U1-DTR)*%
X-184020000Y37645000D03*
%TO.P,U1,3,RTS*%
%TO.N,unconnected-(U1-RTS-Pad3)*%
X-184020000Y36995000D03*
%TO.P,U1,4,VCCIO*%
%TO.N,LED_5V*%
X-184020000Y36345000D03*
%TO.P,U1,5,RXD*%
%TO.N,UART0_TX*%
X-184020000Y35695000D03*
%TO.P,U1,6,RI*%
%TO.N,unconnected-(U1-RI-Pad6)*%
X-184020000Y35045000D03*
%TO.P,U1,7,GND*%
%TO.N,GND*%
X-184020000Y34395000D03*
%TO.P,U1,8*%
%TO.N,N/C*%
X-184020000Y33745000D03*
%TO.P,U1,9,DCR*%
%TO.N,unconnected-(U1-DCR-Pad9)*%
X-184020000Y33095000D03*
%TO.P,U1,10,DCD*%
%TO.N,unconnected-(U1-DCD-Pad10)*%
X-184020000Y32445000D03*
%TO.P,U1,11,CTS*%
%TO.N,unconnected-(U1-CTS-Pad11)*%
X-184020000Y31795000D03*
%TO.P,U1,12,CBUS4*%
%TO.N,unconnected-(U1-CBUS4-Pad12)*%
X-184020000Y31145000D03*
%TO.P,U1,13,CBUS2*%
%TO.N,unconnected-(U1-CBUS2-Pad13)*%
X-184020000Y30495000D03*
%TO.P,U1,14,CBUS3*%
%TO.N,unconnected-(U1-CBUS3-Pad14)*%
X-184020000Y29845000D03*
%TO.P,U1,15,USBD+*%
%TO.N,Net-(U1-USBD+)*%
X-176820000Y29845000D03*
%TO.P,U1,16,USBD-*%
%TO.N,Net-(U1-USBD-)*%
X-176820000Y30495000D03*
%TO.P,U1,17,3V3OUT*%
%TO.N,Net-(U1-3V3OUT)*%
X-176820000Y31145000D03*
%TO.P,U1,18,GND*%
%TO.N,GND*%
X-176820000Y31795000D03*
%TO.P,U1,19,~{RESET}*%
%TO.N,unconnected-(U1-~{RESET}-Pad19)*%
X-176820000Y32445000D03*
%TO.P,U1,20,VCC*%
%TO.N,LED_5V*%
X-176820000Y33095000D03*
%TO.P,U1,21,GND*%
%TO.N,GND*%
X-176820000Y33745000D03*
%TO.P,U1,22,CBUS1*%
%TO.N,LED_USB_RX*%
X-176820000Y34395000D03*
%TO.P,U1,23,CBUS0*%
%TO.N,LED_USB_TX*%
X-176820000Y35045000D03*
%TO.P,U1,24*%
%TO.N,N/C*%
X-176820000Y35695000D03*
%TO.P,U1,25,AGND*%
%TO.N,GND*%
X-176820000Y36345000D03*
%TO.P,U1,26,TEST*%
X-176820000Y36995000D03*
%TO.P,U1,27,OSCI*%
%TO.N,unconnected-(U1-OSCI-Pad27)*%
X-176820000Y37645000D03*
%TO.P,U1,28,OSCO*%
%TO.N,unconnected-(U1-OSCO-Pad28)*%
X-176820000Y38295000D03*
%TD*%
D11*
%TO.P,R21,1*%
%TO.N,LED_5V*%
X-151312500Y8210000D03*
%TO.P,R21,2*%
%TO.N,GND*%
X-149487500Y8210000D03*
%TD*%
%TO.P,R46,1*%
%TO.N,Net-(D12-K)*%
X-121612500Y39890000D03*
%TO.P,R46,2*%
%TO.N,LED_USB_TX*%
X-119787500Y39890000D03*
%TD*%
D10*
%TO.P,C6,1*%
%TO.N,GND*%
X-217002500Y19030000D03*
%TO.P,C6,2*%
%TO.N,Net-(U1-3V3OUT)*%
X-215277500Y19030000D03*
%TD*%
D44*
%TO.P,SW1,1,1*%
%TO.N,GND*%
X-182400000Y14820000D03*
X-175900000Y14820000D03*
%TO.P,SW1,2,2*%
%TO.N,SW_RESET*%
X-182400000Y10320000D03*
X-175900000Y10320000D03*
%TD*%
D10*
%TO.P,C11,1*%
%TO.N,GND*%
X-212652500Y19030000D03*
%TO.P,C11,2*%
%TO.N,Net-(U2-AREF)*%
X-210927500Y19030000D03*
%TD*%
%TO.P,C20,1*%
%TO.N,GND*%
X-170562500Y-21040000D03*
%TO.P,C20,2*%
%TO.N,LED_5V*%
X-168837500Y-21040000D03*
%TD*%
%TO.P,C18,1*%
%TO.N,LED_5V*%
X-155612500Y8210000D03*
%TO.P,C18,2*%
%TO.N,GND*%
X-153887500Y8210000D03*
%TD*%
%TO.P,C2,1*%
%TO.N,LED_5V*%
X-217002500Y26560000D03*
%TO.P,C2,2*%
%TO.N,GND*%
X-215277500Y26560000D03*
%TD*%
D20*
%TO.P,J4,1,Pin_1*%
%TO.N,GND*%
X139530000Y-24600000D03*
X147150000Y-24600000D03*
%TO.P,J4,2,Pin_2*%
%TO.N,LED_INPUT*%
X139530000Y-19520000D03*
X147150000Y-19520000D03*
%TD*%
D45*
%TO.P,J1,1,Pin_1*%
%TO.N,SPI_MISO*%
X-197640000Y23620000D03*
D46*
%TO.P,J1,2,Pin_2*%
%TO.N,LED_5V*%
X-197640000Y21080000D03*
%TO.P,J1,3,Pin_3*%
%TO.N,SPI_SCK*%
X-197640000Y18540000D03*
%TO.P,J1,4,Pin_4*%
%TO.N,SPI_MOSI*%
X-197640000Y16000000D03*
%TO.P,J1,5,Pin_5*%
%TO.N,CTL_RESET*%
X-197640000Y13460000D03*
%TO.P,J1,6,Pin_6*%
%TO.N,GND*%
X-197640000Y10920000D03*
%TD*%
D11*
%TO.P,R43,1*%
%TO.N,LED_LOW_VOLTAGE*%
X-121612500Y47420000D03*
%TO.P,R43,2*%
%TO.N,CONN_LED_LOW_VOLTAGE*%
X-119787500Y47420000D03*
%TD*%
D28*
%TO.P,Q2,1,G*%
%TO.N,Net-(Q1-G)*%
X-155050000Y38880000D03*
D29*
%TO.P,Q2,2,D*%
%TO.N,Net-(Q1-D)*%
X-150425000Y38125000D03*
X-150425000Y35075000D03*
D30*
X-148750000Y36600000D03*
D29*
X-147075000Y38125000D03*
X-147075000Y35075000D03*
D28*
%TO.P,Q2,3,S*%
%TO.N,+VSW*%
X-155050000Y34320000D03*
%TD*%
D12*
%TO.P,TP1,1,1*%
%TO.N,LED_INPUT*%
X-142500000Y46400000D03*
%TD*%
D11*
%TO.P,R57,1*%
%TO.N,SW_EMERGENCY_STOP*%
X-166262500Y-26060000D03*
%TO.P,R57,2*%
%TO.N,Net-(R57-Pad2)*%
X-164437500Y-26060000D03*
%TD*%
%TO.P,R20,1*%
%TO.N,VREF_12V*%
X-151312500Y10720000D03*
%TO.P,R20,2*%
%TO.N,LED_12V*%
X-149487500Y10720000D03*
%TD*%
D26*
%TO.P,R12,1*%
%TO.N,Net-(Q1-G)*%
X-142450000Y7570000D03*
%TO.P,R12,2*%
%TO.N,SW_RUN*%
X-139350000Y7570000D03*
%TD*%
D11*
%TO.P,R35,1*%
%TO.N,LED_TASK*%
X-125962500Y47420000D03*
%TO.P,R35,2*%
%TO.N,CONN_LED_TASK*%
X-124137500Y47420000D03*
%TD*%
D14*
%TO.P,D5,1,K*%
%TO.N,LED_5V*%
X-138855000Y43650000D03*
%TO.P,D5,2,A*%
%TO.N,Net-(D4-A)*%
X-136055000Y43650000D03*
%TD*%
D11*
%TO.P,R52,1*%
%TO.N,SW_FILL*%
X-170612500Y-33590000D03*
%TO.P,R52,2*%
%TO.N,Net-(R52-Pad2)*%
X-168787500Y-33590000D03*
%TD*%
%TO.P,R44,1*%
%TO.N,LED_LOW_VOLTAGE*%
X-121612500Y44910000D03*
%TO.P,R44,2*%
%TO.N,Net-(D17-A)*%
X-119787500Y44910000D03*
%TD*%
%TO.P,R22,1*%
%TO.N,GND*%
X-146962500Y23270000D03*
%TO.P,R22,2*%
%TO.N,Net-(U5-A1)*%
X-145137500Y23270000D03*
%TD*%
%TO.P,R63,1*%
%TO.N,SW_CONFIRM_3*%
X-161912500Y-21040000D03*
%TO.P,R63,2*%
%TO.N,Net-(R63-Pad2)*%
X-160087500Y-21040000D03*
%TD*%
%TO.P,R25,1*%
%TO.N,GND*%
X-146962500Y15740000D03*
%TO.P,R25,2*%
%TO.N,VREF_THERMISTOR*%
X-145137500Y15740000D03*
%TD*%
%TO.P,R31,1*%
%TO.N,LED_5V*%
X-130312500Y37380000D03*
%TO.P,R31,2*%
%TO.N,CONN_LED_5V*%
X-128487500Y37380000D03*
%TD*%
D12*
%TO.P,TP4,1,1*%
%TO.N,GND*%
X-142500000Y32750000D03*
%TD*%
D10*
%TO.P,C15,1*%
%TO.N,Net-(D6-A)*%
X-155612500Y15740000D03*
%TO.P,C15,2*%
%TO.N,LED_12V*%
X-153887500Y15740000D03*
%TD*%
%TO.P,C13,1*%
%TO.N,LED_5V*%
X-155612500Y20760000D03*
%TO.P,C13,2*%
%TO.N,GND*%
X-153887500Y20760000D03*
%TD*%
D19*
%TO.P,D15,1,K*%
%TO.N,GND*%
X-112785000Y42200000D03*
%TO.P,D15,2,A*%
%TO.N,Net-(D15-A)*%
X-111035000Y42200000D03*
%TD*%
D24*
%TO.P,J9,1,Pin_1*%
%TO.N,GND*%
X-132000000Y-12550000D03*
%TO.P,J9,2,Pin_2*%
%TO.N,SW_PURGE*%
X-132000000Y-14550000D03*
%TO.P,J9,3,Pin_3*%
%TO.N,SW_CLOSE*%
X-130000000Y-12550000D03*
%TO.P,J9,4,Pin_4*%
%TO.N,SW_OPEN*%
X-130000000Y-14550000D03*
%TO.P,J9,5,Pin_5*%
%TO.N,SW_IGNITOR*%
X-128000000Y-12550000D03*
%TO.P,J9,6,Pin_6*%
%TO.N,SW_O2*%
X-128000000Y-14550000D03*
%TO.P,J9,7,Pin_7*%
%TO.N,SW_DUMP*%
X-126000000Y-12550000D03*
%TO.P,J9,8,Pin_8*%
%TO.N,SW_FILL*%
X-126000000Y-14550000D03*
%TO.P,J9,9,Pin_9*%
%TO.N,SW_SHIFT*%
X-124000000Y-12550000D03*
%TO.P,J9,10,Pin_10*%
%TO.N,SW_CONFIRM_3*%
X-124000000Y-14550000D03*
%TO.P,J9,11,Pin_11*%
%TO.N,SW_CONFIRM_2*%
X-122000000Y-12550000D03*
%TO.P,J9,12,Pin_12*%
%TO.N,SW_CONFIRM_1*%
X-122000000Y-14550000D03*
%TO.P,J9,13,Pin_13*%
%TO.N,SW_EMERGENCY_STOP*%
X-120000000Y-12550000D03*
%TO.P,J9,14,Pin_14*%
%TO.N,SW_SEQUENCE_START*%
X-120000000Y-14550000D03*
%TO.P,J9,15,Pin_15*%
%TO.N,SW_SAFETY*%
X-118000000Y-12550000D03*
%TO.P,J9,16,Pin_16*%
%TO.N,SW_KILL*%
X-118000000Y-14550000D03*
%TO.P,J9,17,Pin_17*%
%TO.N,SW_RUN*%
X-116000000Y-12550000D03*
%TO.P,J9,18,Pin_18*%
%TO.N,LED_5V*%
X-116000000Y-14550000D03*
%TD*%
D10*
%TO.P,C19,1*%
%TO.N,GND*%
X-170562500Y-18530000D03*
%TO.P,C19,2*%
%TO.N,LED_5V*%
X-168837500Y-18530000D03*
%TD*%
D11*
%TO.P,R24,1*%
%TO.N,GND*%
X-146962500Y18250000D03*
%TO.P,R24,2*%
%TO.N,VREF_12V*%
X-145137500Y18250000D03*
%TD*%
D10*
%TO.P,C17,1*%
%TO.N,Net-(D6-A)*%
X-155612500Y10720000D03*
%TO.P,C17,2*%
%TO.N,Net-(D4-A)*%
X-153887500Y10720000D03*
%TD*%
M02*
